<?xml version="1.0" encoding="UTF-8" standalone="no"?>
<!-- Created with Inkscape (http://www.inkscape.org/) -->

<svg
   width="193.60579mm"
   height="47.480244mm"
   viewBox="0 0 193.60579 47.480244"
   version="1.1"
   id="svg1"
   xmlns="http://www.w3.org/2000/svg"
   xmlns:svg="http://www.w3.org/2000/svg">
  <defs
     id="defs1" />
  <g
     id="layer1"
     transform="translate(-8.0860269,-140.02204)">
    <g
       id="text1"
       style="font-weight:500;font-size:50.8px;font-family:'Noto Sans';-inkscape-font-specification:'Noto Sans Medium';text-align:center;letter-spacing:-2.64583px;text-anchor:middle;fill:#003380;stroke-width:0.264583"
       aria-label="QualiTex">
      <path
         style="fill:#476c9b"
         d="m 41.918827,160.67987 q 0,6.5024 -2.54,11.1252 -2.54,4.572 -7.5692,6.4516 l 8.7376,9.2456 h -7.5692 l -6.858,-8.1788 q -0.254,0 -0.5588,0 -0.3048,0.0508 -0.5588,0.0508 -5.7404,0 -9.4996,-2.3368 -3.7084,-2.3368 -5.5879998,-6.5532 -1.8287999,-4.2164 -1.8287999,-9.8552 0,-5.588 1.8287999,-9.7536 1.8795998,-4.1656 5.6387998,-6.5024 3.7592,-2.3368 9.4996,-2.3368 5.588,0 9.2964,2.3368 3.7592,2.286 5.6388,6.5024 1.9304,4.1656 1.9304,9.8044 z m -27.9908,0 q 0,6.5024 2.6416,10.2616 2.6924,3.7084 8.4328,3.7084 5.7912,0 8.4328,-3.7084 2.6416,-3.7592 2.6416,-10.2616 0,-6.5024 -2.6416,-10.2108 -2.6416,-3.7084 -8.382,-3.7084 -5.7912,0 -8.4836,3.7084 -2.6416,3.7084 -2.6416,10.2108 z m 56.078993,-9.1948 v 27.3812 h -4.318 l -0.762,-3.6068 h -0.254 q -1.3716,2.1336 -3.7084,3.1496 -2.286,0.9652 -4.9276,0.9652 -4.7752,0 -7.366,-2.3876 -2.54,-2.3876 -2.54,-7.5692 v -17.9324 h 5.4864 v 17.1196 q 0,6.35 5.5372,6.35 4.2164,0 5.7912,-2.4892 1.6256,-2.4892 1.6256,-7.1628 v -13.8176 z m 16.556606,-0.4572 q 4.9784,0 7.4676,2.286 2.54,2.2352 2.54,7.0104 v 18.542 h -3.8608 l -1.0668,-3.81 h -0.2032 q -1.778,2.2352 -3.7592,3.302 -1.930399,1.016 -5.384799,1.016 -3.7084,0 -6.1468,-1.9812 -2.4384,-2.032 -2.4384,-6.2992 0,-4.1148 3.1496,-6.2992 3.2004,-2.2352 9.753599,-2.4384 l 4.6228,-0.1524 v -1.4224 q 0,-3.0988 -1.3716,-4.318 -1.3716,-1.27 -3.860799,-1.27 -2.032,0 -4.0132,0.6604 -1.9304,0.6096 -3.6576,1.4224 l -1.6256,-3.9116 q 1.8796,-0.9652 4.4196,-1.6256 2.54,-0.7112 5.435599,-0.7112 z m 0.9652,14.8336 q -4.673599,0.1524 -6.451599,1.4732 -1.778,1.3208 -1.778,3.7084 0,2.1336 1.27,3.1496 1.27,0.9652 3.302,0.9652 3.149599,0 5.232399,-1.7272 2.1336,-1.778 2.1336,-5.334 v -2.3876 z m 19.909394,13.0048 h -5.3848 v -38.608 h 5.3848 z m 8.42859,-37.7952 q 1.2192,0 2.1336,0.7112 0.9144,0.7112 0.9144,2.3876 0,1.6256 -0.9144,2.3876 -0.9144,0.7112 -2.1336,0.7112 -1.27,0 -2.1844,-0.7112 -0.9144,-0.762 -0.9144,-2.3876 0,-1.6764 0.9144,-2.3876 0.9144,-0.7112 2.1844,-0.7112 z m 2.6416,10.414 v 27.3812 h -5.3848 v -27.3812 z"
         id="path2" />
      <path
         style="font-weight:normal;font-family:'Fredericka the Great';-inkscape-font-specification:'Fredericka the Great';fill:#822639"
         d="m 156.54071,144.88385 q -0.24805,0.14883 -0.49609,0.44648 -0.24805,0.29766 -0.34727,0.64493 -0.0992,0.34726 -0.0496,0.64492 0.0992,0.29765 0.4961,0.49609 0,0.59531 -0.34727,0.74414 0.0992,0.4961 -0.0496,1.0418 -0.0992,0.5457 0.19844,0.89297 -0.19844,0.14883 -0.14883,0.5457 0.0496,0.34727 -0.0496,0.4961 0.29766,0.69453 0,1.48828 -0.24805,0.79375 -0.14883,1.73632 0,1.24024 -0.14883,1.93477 -0.14882,0.64492 -0.0496,1.19063 -0.0992,0.14882 -0.24805,0.34726 -0.0992,0.14883 -0.39688,0.14883 -0.0992,-0.0992 -0.14882,-0.34727 0,-0.24804 0.0992,-0.34726 -0.24804,-0.0992 -0.39687,-0.34727 -0.0992,-0.29765 -0.19844,-0.59531 -0.0496,-0.29766 -0.14883,-0.59531 -0.0496,-0.29766 -0.19843,-0.4961 -0.0992,-0.74414 -0.29766,-1.5875 -0.19844,-0.89297 -0.49609,-1.5875 -0.0992,-0.19843 -0.14883,-0.49609 -0.0496,-0.34727 -0.0992,-0.69453 0,-0.39688 -0.0992,-0.74414 -0.0496,-0.34727 -0.29766,-0.59531 -0.24804,0.0496 -0.34726,-0.0496 -0.0496,-0.0992 -0.24805,0 -0.0496,-0.14883 -0.0992,-0.24805 -0.0496,-0.14883 -0.0496,-0.29766 0.0992,-0.34726 0.14883,-0.5457 0.0992,-0.19844 0.19844,-0.39688 -0.89297,-0.19843 -0.99219,-0.5457 -0.0496,-0.34726 -0.0992,-0.89297 -0.34726,-0.24804 -0.5457,-0.5457 -0.14883,-0.29766 -0.39687,-0.5457 -0.24805,0.0992 -0.4961,0.0496 -0.19844,-0.0496 -0.29765,0.19843 -0.39688,-0.34726 -0.44649,-0.39687 0,-0.0496 -0.0992,-0.29766 0.0992,-0.0992 0.29766,-0.0992 0.19844,0 0.29765,-0.0496 -0.19843,-0.5457 -0.74414,-0.74414 -0.5457,-0.19843 -0.84336,-0.64492 -0.19843,-0.24804 -0.39687,-0.44648 -0.19844,-0.19844 -0.39688,-0.34727 -0.19843,-0.19844 -0.44648,-0.29765 -0.24805,-0.0992 -0.59531,0 -0.0992,-0.14883 -0.24805,-0.24805 -0.14883,-0.14883 -0.24805,-0.24805 -0.79375,0.14883 -1.48828,0.0992 -0.69453,-0.0496 -1.19062,0.0496 0,0.39688 0,0.69453 0,0.29766 -0.19844,0.5457 0.14883,0.29766 0.19844,0.44649 0.0992,0.14883 -0.14883,0.19844 0.14883,0.0992 0.19844,0.39687 0.0496,0.24805 0.14883,0.39688 -0.24805,0.24804 -0.0992,0.64492 0.19843,0.34726 0.19843,0.69453 0.34727,0.49609 0.14883,0.69453 -0.19844,0.19844 -0.0992,0.69453 0.0992,1.09141 0.0496,1.68672 -0.0496,0.5457 0.0496,1.19063 -0.0496,0.44648 -0.0496,0.84335 0.0496,0.34727 -0.14883,0.4961 0.19844,0.49609 0.0496,0.99219 -0.14882,0.44648 0.0992,0.74414 -0.0496,0.84336 0,1.5875 0.0496,0.69453 -0.0496,1.28984 0.24805,0.14883 0.29766,0.49609 0.0496,0.34727 0.24805,0.54571 -0.44649,0.19843 -0.4961,0.74414 0,0.5457 -0.19843,0.79375 0.24804,0.24804 0.14882,0.64492 -0.0992,0.39687 -0.19843,0.64492 0.19843,0.19844 0.0992,0.44649 -0.0992,0.24804 -0.0992,0.39687 0.0496,0.19844 0.14882,0.29766 0.0992,0.0992 0.14883,0.19843 -0.0496,0.19844 -0.14883,0.29766 -0.0992,0.0992 -0.19843,0.24805 -0.0496,0.44648 0.14882,0.64492 0.19844,0.14883 0.24805,0.5457 -0.24805,0.69453 -0.5457,0.89297 -0.0992,0.44649 -0.0496,0.64492 0.0992,0.14883 0.0992,0.59532 0.24804,0.44648 0.0496,0.64492 -0.14883,0.14883 -0.0496,0.39687 0.64492,0.14883 0.49609,0.34727 -0.0992,0.19844 -0.29765,0.44648 -0.19844,0.19844 -0.39688,0.44649 -0.14883,0.19843 -0.14883,0.44648 0,0.29766 0.19844,0.44649 0.24805,0.0992 0,0.44648 0.49609,-0.24805 0.5457,-0.0992 0.0496,0.0992 0.19844,0.14883 -0.34727,0.39687 -0.64492,0.94258 -0.24805,0.5457 0.14883,0.99219 -0.14883,0.34726 -0.0496,0.69453 0.0992,0.34726 0.24804,0.5457 -0.19843,0.69453 -0.14882,0.84336 0.0992,0.14883 0.0496,0.39687 -0.19844,0.29766 -0.0496,0.4961 0.14882,0.14883 -0.14883,0.24804 0.14883,0.39688 0.0992,0.99219 -0.0496,0.59531 0.19843,0.99219 0.39688,0.39687 0.94258,0.79375 0.54571,0.34727 1.43867,0.0496 1.09141,0.5457 2.18282,0.59531 1.0914,0 2.23242,0 0.14883,0.0992 0.24805,0.24805 0.14882,0.14883 0.14882,0.44648 -0.24804,0.0496 -0.49609,0.29766 -0.14883,-0.0496 -0.24805,0.19844 -0.0992,0.24804 -0.19843,0.44648 -0.64493,0.0496 -1.14102,-0.0992 -0.44648,-0.14883 -0.94258,0.0992 -0.29765,-0.14883 -0.79375,-0.29766 -0.49609,-0.14882 -0.79375,0.0992 -0.84336,-0.19843 -1.73633,-0.0992 -0.89297,0.0496 -1.88515,0.14883 -0.69453,-0.14883 -1.24024,-0.14883 -0.5457,0 -1.14101,0.0496 -0.84336,-0.14882 -1.68672,-0.0992 -0.79375,0 -1.5875,0.19843 -0.64492,-0.14883 -1.28985,-0.14883 -0.59531,-0.0496 -1.38906,-0.0992 -0.89297,-0.0992 -1.48828,-0.0992 -0.59531,0 -1.19062,-0.0496 -0.59532,-0.0496 -1.19063,-0.0496 -0.59531,0 -1.14101,0.14883 -0.54571,-0.14883 -1.14102,-0.0496 -0.59531,0.0992 -1.33945,0 0.0992,-0.79375 0.44648,-0.89297 0.34727,-0.14883 0.74414,-0.14883 0.39688,0 0.79375,0.0496 0.39688,0 0.79375,0 0.5457,0 1.0418,-0.14883 0.5457,-0.14883 0.99219,0.0992 0.89296,-0.19844 1.28984,-0.24805 0.44648,-0.0496 0.74414,-0.24804 0.5457,-0.24805 1.0418,-0.99219 0.5457,-0.74414 0.99218,-1.09141 0.0992,-0.24804 -0.0992,-0.29765 -0.14883,-0.0496 -0.19844,-0.19844 0.0496,-0.24805 0.0992,-0.44649 0.0992,-0.19843 -0.0992,-0.44648 0.0496,-0.5457 0.24805,-0.74414 0.19843,-0.24805 0.34726,-0.49609 0,-0.64493 0.0496,-1.14102 0.0992,-0.5457 -0.29766,-0.89297 0.29766,-0.69453 0.29766,-0.99219 0.0496,-0.29765 0.14883,-0.64492 -0.59531,-0.64492 -0.34727,-0.99219 0.24805,-0.39687 0.24805,-0.89296 0,-0.54571 -0.0496,-1.0418 0,-0.5457 -0.0992,-1.0418 0.19844,-0.34726 -0.0992,-0.5457 -0.44648,0.0496 -0.69453,0.0496 0.0992,-0.29766 0.34727,-0.39688 0.29765,-0.14882 0.44648,-0.39687 -0.0496,-0.34727 0,-0.64492 0.0496,-0.34727 0.0496,-0.74414 -0.19844,-0.94258 0.0496,-1.53789 0.29766,-0.64493 -0.0496,-1.33946 -0.5457,0 -0.59531,-0.14883 -0.0496,-0.14882 0,-0.39687 0.19844,-0.49609 0.34726,-0.59531 0.14883,-0.0992 0.24805,-0.29766 -0.0496,-0.39687 -0.0992,-0.74414 -0.0496,-0.34727 -0.44648,-0.39688 -0.24805,-0.44648 -0.0992,-0.69453 0.19844,-0.29765 0.49609,-0.49609 0.0496,-0.5457 -0.19843,-0.89297 -0.24805,-0.34726 -0.24805,-0.79375 0.29765,-0.19844 0.24805,-0.69453 0,-0.49609 -0.19844,-0.79375 0.19844,-0.24805 0.0496,-0.59531 -0.14883,-0.34727 0,-0.54571 -0.4961,-0.14882 -0.54571,-0.24804 -0.0496,-0.14883 -0.0496,-0.29766 0.0496,-0.44648 0.29766,-0.69453 0.29766,-0.24805 0.24805,-0.74414 -0.54571,0.24805 -0.59531,0.14883 0,-0.14883 -0.14883,-0.19844 0.34726,-0.39688 0.14883,-0.34727 -0.19844,0 -0.14883,-0.19843 0.29765,-0.0496 0.34726,-0.14883 0.0992,-0.14883 0,-0.34727 0.54571,-0.74414 0.39688,-0.99218 -0.14883,-0.29766 -0.29766,-0.54571 0.24805,-0.39687 0.29766,-0.94258 0.0992,-0.5457 -0.29766,-0.79375 0.14883,-0.74414 0.19844,-1.28984 0.0992,-0.59531 0,-1.19062 -1.28984,-0.0992 -2.48047,0 -1.19062,0.0496 -2.23242,0.44648 0,0.34727 -0.19844,0.49609 -0.19844,0.14883 -0.24805,0.4961 -0.24804,-0.0992 -0.39687,0.0496 -0.0992,0.0992 -0.19844,0 -0.19844,0.44648 -0.69453,0.59531 -0.49609,0.14883 -0.49609,0.64492 -0.24805,0 -0.39688,0.0992 -0.0992,0.0992 -0.19844,0.24805 -0.0992,0.14882 -0.19843,0.29765 -0.0496,0.0992 -0.24805,0.14883 0,0.5457 -0.34727,0.99219 -0.34726,0.39687 -0.44648,0.99219 0.24805,0.24804 0.0992,0.34726 -0.14883,0.0992 -0.24805,0.24805 -0.0992,0.44648 -0.19844,0.49609 -0.0496,0 -0.24804,0 -0.34727,0.69453 -0.54571,1.5875 -0.19843,0.89297 -0.64492,1.5875 -0.34726,0.74414 -0.29765,1.33946 0.0496,0.59531 -0.19844,1.14101 -0.39688,0.59531 -0.39688,0.94258 0,0.34726 -0.0992,0.64492 -0.24804,0.59531 -0.24804,0.84336 0.0496,0.24805 -0.29766,0.29766 -0.14883,-0.0496 -0.19844,-0.14883 -0.0496,-0.14883 -0.19843,-0.24805 0.44648,-1.43867 0.74414,-3.02617 0.34726,-1.5875 0.89297,-2.87734 0.0992,-0.14883 0.19843,-0.24805 0.0992,-0.0992 0.0992,-0.34727 -0.49609,-0.24804 -0.39687,-0.29765 0.0992,-0.0992 0.0992,-0.24805 0.34726,-0.0496 0.34726,-0.24805 0,-0.24804 0.29766,-0.34726 -0.29766,-0.4961 -0.19844,-0.4961 0.0992,0 0.19844,-0.0992 -0.24805,-0.0992 -0.39688,0.0992 -0.0992,0.14883 -0.34726,0.14883 -0.54571,0.39688 -0.39688,0.44649 0.19844,0.0496 0.14883,0.14882 -0.24805,0.14883 -0.39687,0.0496 -0.14883,-0.0992 -0.34727,-0.0992 0.0496,0.44648 -0.19844,0.59531 -0.19844,0.14883 -0.5457,0.34726 -0.24805,0.69453 -0.14883,1.28985 0.14883,0.59531 0.14883,1.24023 0,0.44649 -0.19844,1.09141 -0.14883,0.59531 0.24805,1.04179 -0.19844,0.54571 -0.0992,1.0418 0.14883,0.4961 0.0992,1.14102 l -0.4961,0.24804 q -0.24804,-0.34726 -0.19843,-0.74414 0.0992,-0.39687 -0.19844,-0.64492 0.14883,-1.0914 0.0496,-2.08359 -0.0496,-1.0418 -0.0992,-2.0836 0,-0.19843 0.0496,-0.34726 0.0496,-0.19844 0.0496,-0.34727 0.0992,-0.5457 0,-1.24023 -0.0496,-0.69453 0.0992,-1.28985 0.0992,-0.19843 0.0992,-0.49609 0,-0.29766 -0.0992,-0.59531 -0.44649,-0.19844 -0.59531,-0.0992 -0.0992,0.0992 -0.19844,0.0992 0.19844,-0.39688 0.24804,-0.44649 0.0992,-0.0496 0.24805,-0.0496 -0.19844,-0.24804 0,-0.39687 0.19844,-0.19844 0.29766,-0.49609 -0.19844,-0.44649 -0.0992,-0.44649 0.0992,-0.0496 0.14883,-0.14883 0.19843,-0.69453 0.0496,-1.93476 -0.14883,-1.24024 -0.39688,-2.23242 0.24805,-0.0496 0.59531,-0.0496 0.39688,-0.0496 0.44649,0.14883 0.0992,-0.14883 0.5457,-0.24805 0.34727,0.0992 0.74414,0.0992 0.39688,0 0.74414,0 0.34727,-0.0496 0.64492,-0.14883 0.29766,-0.0992 0.4961,-0.34727 0.24805,0.24805 0.64492,0.34727 0.39688,0.0992 0.84336,0.0992 0.49609,-0.0496 0.94258,-0.14883 0.44648,-0.0992 0.74414,-0.19844 1.38906,0.14883 2.23242,0.14883 0.84336,0 1.73633,0.0992 0.39687,-0.19844 0.74414,-0.14883 0.39687,0 0.74414,0.0992 0.34727,0.0992 0.69453,0.14883 0.34727,0.0496 0.69453,-0.14883 0.44649,0.0496 0.74414,0.0992 0.34727,0.0496 0.54571,-0.0496 0.49609,0 0.89296,0 0.39688,0 0.79375,0.0496 0.44649,0.0496 0.79375,0 0.39688,-0.0992 0.59532,-0.39688 0.59531,0.34727 1.0914,0.24805 0.4961,-0.0992 0.99219,-0.19844 0.29766,-0.0496 0.59531,0.0496 0.29766,0.0496 0.54571,0 0.39687,-0.0496 0.69453,-0.24804 0.29765,-0.19844 0.69453,0.19843 0.5457,-0.0496 1.09141,0 0.5457,0.0496 0.99218,0.0992 0.4961,0 0.94258,-0.0496 0.44649,-0.0992 0.74414,-0.34726 0.39688,0.0992 0.44649,0.14882 0.0992,0 0.14882,0.19844 0.99219,-0.34726 1.48829,-0.44648 0.5457,-0.0992 1.0914,-0.34727 0.24805,0.0992 0.4961,0.24805 0.29765,0.0992 0.39687,0.34726 0.5457,-0.0992 1.24023,0.0496 0.69454,0.0992 1.24024,0.14883 0.19844,-0.34726 0.49609,-0.34726 0.29766,0 0.54571,0.24804 0.24804,0.19844 0.29765,0.54571 0.0992,0.29765 -0.19844,0.64492 0.19844,0.24805 0.0496,0.44648 -0.14882,0.19844 0.0496,0.44649 0.24805,-0.14883 0.4961,-0.14883 0.29765,0 0.34726,0.19844 0.0496,0.24804 -0.14883,0.19843 -0.14882,-0.0496 -0.29765,0.14883 -0.14883,0.14883 -0.19844,0.44649 0,0.24804 -0.24805,0.39687 0,0.24805 0.24805,0.19844 0.29766,-0.0496 0.34727,0.19844 0.34726,0.0496 0.29765,0.14882 0,0.0496 0.0992,0.29766 z m -33.18867,5.95313 q -0.14883,0.14882 -0.29766,0.19843 -0.14882,0.0496 -0.0992,0.24805 -0.14882,-0.19844 -0.0496,-0.34727 0.14882,-0.14882 0.44648,-0.0992 z m 31.50195,-9.27696 q -0.24804,-0.0992 -0.39687,-0.0992 -0.0992,0 -0.29766,-0.14882 -0.0992,0.19843 -0.49609,0.0496 -0.39688,-0.14883 -0.54571,0.0992 -0.24804,0.64493 -0.64492,0.94258 -0.39687,0.29766 -0.94258,0.39688 -0.39687,0.14883 -0.64492,0.29765 -0.19843,0.24805 -0.34726,0.44649 -0.0992,0.14883 -0.34727,0.29765 0.24805,0.24805 0.59531,0.19844 0.39688,-0.0992 0.59532,0 0.24804,-0.49609 0.44648,-0.64492 0.24805,-0.19844 0.64492,-0.14883 0.0992,-0.59531 0.39688,-0.69453 0.34726,-0.0992 0.59531,0.0496 0.0496,-0.24805 0.39688,-0.24805 0.39687,0 0.24804,-0.24804 0.39688,-0.14883 0.59531,-0.19844 0.19844,-0.0496 0.14883,-0.34727 z m -1.43867,1.48828 q -0.14883,0.0992 -0.34726,0.0496 -0.14883,-0.0992 -0.34727,0 0.39687,0.29766 0.5457,0.24805 0.19844,-0.0992 0.14883,-0.29766 z m 1.19063,2.72852 q -0.0992,-0.24805 -0.19844,-0.24805 -0.0992,-0.0496 -0.24805,0 -0.0992,0 -0.29765,0.0496 -0.14883,0.0496 -0.34727,0 0.14883,0.24805 0.49609,0.19844 0.34727,-0.0496 0.59532,0 z m -2.6293,-4.11758 q -0.44649,-0.39687 -0.79375,-0.24805 -0.29766,0.0992 -0.59531,0.29766 -0.24805,0.14883 -0.54571,0.34727 -0.24804,0.19843 -0.5457,0.19843 -0.19844,0.34727 -0.59531,0.4961 0.24804,0.34726 0.39687,0.29765 0.14883,-0.0992 0.34727,0 0.49609,-0.59531 0.79375,-0.5457 0.39687,-0.34726 0.69453,-0.59531 0.29766,-0.24805 0.84336,-0.24805 z m 0.59531,1.93477 q -0.14883,-0.14883 -0.29765,0 -0.14883,0.14883 -0.29766,0.0496 -0.44649,0.39687 -0.49609,0.49609 0,0.0992 -0.0992,0.19844 -0.14883,-0.0992 -0.29766,-0.0496 -0.0992,0 -0.24805,0.0496 0,0.24804 -0.0992,0.29765 -0.0992,0.0496 -0.0496,0.29766 0.74414,-0.19844 0.79375,-0.59531 0.24804,0 0.34726,-0.24805 0.14883,-0.24805 0.39688,0.0496 -0.0496,-0.24805 0.0992,-0.29766 0.19844,-0.0496 0.24805,-0.24804 z m 2.53008,3.32382 q 0.0496,-0.34726 -0.19844,-0.44648 -0.19844,-0.0992 -0.44648,-0.19844 -0.0496,0.4961 -0.19844,0.4961 -0.14883,-0.0496 -0.24805,0.0496 -0.34726,0.24804 -0.69453,0.34726 -0.34726,0.0496 -0.44648,-0.29765 0.14883,0 0.29765,0 0.14883,-0.0496 0.24805,-0.14883 0.5457,-0.19844 0.5457,-0.0992 0,0.0992 0.14883,0.0496 0.0992,-0.29766 -0.14883,-0.19844 -0.24804,0.0496 -0.29765,-0.14883 -0.24805,-0.0496 -0.44649,-0.0496 -0.14882,-0.0496 -0.34726,0.0496 0.0992,0.19844 -0.0992,0.29766 -0.19844,0.0992 -0.19844,0.34726 0.29766,0.44649 0.4961,0.39688 0.24804,-0.0992 0.44648,0 0.0992,0.59531 0.14883,0.59531 0.0992,-0.0496 0.14883,-0.14883 0.0496,-0.0992 0.0992,-0.24804 0.0992,-0.14883 0.19844,-0.14883 0.19844,0 0.34727,0.0496 0.14883,0 0.24804,0 0.14883,-0.39688 0.19844,-0.44649 0.0992,-0.0496 0.19844,-0.0992 z m -5.45703,-5.45703 q -0.64492,0.0496 -1.19063,0.0992 -0.5457,0 -0.69453,0.59532 0.24805,0.0496 0.29766,0.19843 0.0992,0.14883 0.34726,0.24805 0.24805,-0.49609 0.64493,-0.5457 0.44648,-0.0992 0.59531,-0.59532 z m 4.91133,6.39961 q -0.59532,0.24805 -0.84336,0.4961 -0.24805,0.24804 -0.59532,0.49609 0.0992,0.5457 0.34727,0.64492 0.79375,-0.49609 1.09141,-1.63711 z m 0.5457,0.79375 q -0.0992,0.44649 -0.74414,0.69453 0,0.4961 -0.24805,0.59532 -0.19844,0.0992 -0.44648,0.24804 0.19844,0.19844 0.14883,0.39688 -0.0496,0.14883 -0.0496,0.29765 0.29765,-0.0496 0.44648,-0.0992 0.19844,-0.0992 0.44649,0 0.64492,-0.64493 0.59531,-1.24024 0,-0.59531 -0.14883,-0.89297 z m -0.19844,2.72852 q -0.64492,0.14883 -0.94258,0.59531 -0.29765,0.44649 0.0496,1.14102 0.34727,0.24804 0.64493,-0.14883 -0.14883,-0.34727 0.14882,-0.74414 0.34727,-0.44649 0.0992,-0.84336 z m 0.0992,2.43086 q -0.39687,0.0992 -0.29766,0.29765 0.0992,0.14883 0,0.24805 -0.34726,0.0992 -0.24804,0.49609 0.14883,0.39688 0.39687,0.59532 0.14883,-0.29766 0.19844,-0.74414 0.0496,-0.4961 -0.0496,-0.89297 z m -15.18047,-11.45977 q -0.39687,-0.0992 -0.74414,0.0496 -0.34726,0.0992 -0.59531,0.14883 0.0992,-0.29766 0.34726,-0.29766 0.24805,0 0.4961,-0.0992 l -0.74414,-0.44649 q -0.54571,0.69453 -1.38906,1.09141 -0.84336,0.34726 -1.38907,0.99218 0.0496,0.29766 -0.14883,0.4961 -0.19843,0.14883 -0.34726,0.39687 -0.0992,0.19844 -0.0496,0.39688 0.0992,0.19844 0.39687,0.29765 0.59532,-0.5457 0.84336,-0.84336 0.24805,-0.29765 0.64493,-0.49609 0.0992,0.34727 0.14882,0.0496 0.0496,-0.34726 0.44649,-0.24805 0.24805,-0.29765 0.34726,-0.34726 0.14883,-0.0992 0.24805,-0.19844 0.0992,-0.0992 0.19844,-0.14883 0.0992,-0.0496 0.24805,0 0.0992,-0.29765 0.39687,-0.34726 0.34727,-0.0496 0.39688,-0.44649 z m -2.18281,-0.64492 q -0.64492,0.14883 -1.19063,0.0496 -0.49609,-0.0992 -1.0914,0.0992 -0.24805,0.29766 -0.19844,0.69453 0.0992,0.34727 0.0496,0.84336 0.74414,-0.14883 1.33945,-0.59531 0.64493,-0.4961 1.09141,-1.09141 z m 4.26641,0.0496 q -0.24805,-0.14883 -0.44649,-0.0992 -0.19844,0 -0.49609,-0.0496 -0.19844,0.34727 -0.39688,0.69453 -0.14883,0.34727 -0.69453,0.39688 -0.14883,0.24805 -0.34726,0.49609 -0.19844,0.24805 -0.74414,0.14883 -0.14883,0.39688 -0.39688,0.39688 -0.24805,-0.0496 -0.49609,0.0496 -0.4961,0.4961 -0.99219,0.99219 -0.44649,0.4961 -1.19063,0.79375 -0.0496,0.24805 0.0992,0.29766 0.14883,0 0.14883,0.24804 -0.14883,0.19844 -0.34726,0.34727 -0.14883,0.0992 -0.24805,0.34727 0.44648,-0.19844 0.84336,-0.59532 0.34726,0.39688 0.14883,0.54571 -0.19844,0.0992 -0.29766,0.39687 -0.34727,-0.0992 -0.44648,0.0496 -0.0992,0.0992 -0.29766,0.14883 0.29766,0.34726 0.24805,0.39687 -0.0496,0 0.0496,0.0992 0.14882,0 0.29765,-0.0496 0.14883,-0.0496 0.29766,0.0496 -0.14883,0.0992 -0.34727,0.24805 -0.19844,0.14883 -0.34726,0.34727 -0.0992,0.19843 -0.0992,0.39687 0,0.19844 0.24804,0.34727 0.0992,-0.0992 0.14883,-0.19844 0.0496,-0.14883 0.24805,-0.24805 0.39687,-0.24805 0.44648,-0.29765 0.0496,-0.0496 0.14883,-0.0496 0.39688,0.49609 0.44649,0.39687 0.29765,-0.29766 0.59531,-0.29766 0.0496,-0.24804 -0.14883,-0.24804 -0.19844,-0.0496 -0.29766,-0.14883 -0.0992,0.49609 -0.44648,0.5457 -0.24805,-0.24804 -0.14883,-0.39687 0.14883,-0.19844 0.4961,-0.14883 -0.19844,-0.0992 -0.14883,-0.34727 0.0496,-0.29765 0.39687,-0.24804 0.14883,0.24804 0.19844,0.14883 0.0992,-0.0992 0.34727,0 0.39687,-0.19844 0.49609,-0.44649 0.5457,-0.44648 0.49609,-0.89297 0.14883,0 0.24805,-0.0992 0.0992,-0.0992 0.29766,0 -0.59532,0 -0.64493,-0.0992 0,-0.0992 -0.0496,-0.19843 0.29765,-0.0992 0.44648,-0.29766 0.19844,-0.19844 0.59531,-0.24805 0.29766,-0.19843 0.29766,-0.24804 0.0496,-0.0992 0.14883,-0.19844 0.44648,-0.44648 0.84336,-0.5457 0.39687,-0.14883 0.74414,-0.34727 0.0992,-0.59531 0,-1.14101 -0.0496,-0.59532 0.0496,-1.14102 z m -2.28204,5.25859 q -0.29765,-0.0992 -0.44648,-0.0496 -0.0992,0.0496 -0.19844,0.14883 0.0992,0.24805 0.34727,0.24805 0.24805,-0.0496 0.29765,-0.34727 z m 2.77813,5.01055 q -0.14883,-0.29766 -0.0992,-0.49609 0.0992,-0.19844 0.0992,-0.59532 -0.59531,0.19844 -0.59531,0.0992 0.0496,-0.0992 -0.0496,-0.0992 -0.4961,-0.29765 -0.59531,-0.19843 -0.0992,0.0496 -0.19844,-0.0496 0.44648,-0.0992 0.5457,0 0.0992,0.0992 0.24805,0.14883 0,-0.29766 0.0992,-0.39688 0.0992,-0.14883 0,-0.39687 0.19843,-0.14883 0.29765,-0.14883 0.14883,-0.0496 0.24805,-0.0992 -0.0992,-0.24805 0,-0.64492 0.0992,-0.44649 -0.29766,-0.44649 -0.5457,0.4961 -0.59531,0.34727 -0.0496,-0.14883 -0.19844,-0.0496 0.0496,0.39687 -0.14882,0.5457 -0.19844,0.14883 -0.39688,0.0992 -0.24805,-0.39687 -0.0992,-0.39687 0.14883,0 0.19844,-0.19844 0.49609,-0.19844 0.69453,-0.19844 0.19844,-0.0496 0.34727,-0.19844 -0.34727,-0.0496 -0.59532,0 -0.24804,0 -0.59531,0.0992 -0.0992,-0.44648 -0.0496,-0.5457 0.0496,-0.0992 0.24805,0 0.19844,0.44648 0.29765,0.34726 0.14883,-0.14882 0.29766,-0.0496 0.19844,-0.44648 0.0992,-0.49609 -0.0992,-0.0496 -0.0992,-0.19844 0.24805,-0.0992 0.39688,-0.0992 0.19843,0 0.49609,-0.0496 0.0496,-0.39688 -0.29766,-0.64493 -0.29765,0.39688 -0.59531,0.29766 -0.0992,0.19844 -0.0992,0.29766 0,0.0496 -0.14883,0.19843 -0.0992,-0.34726 0.19844,-0.59531 0.29766,-0.24805 0.34727,-0.5457 0.0496,-0.19844 -0.14883,-0.24805 -0.19844,-0.0496 -0.44649,0.0992 -0.0496,-0.24805 0.0992,-0.24805 0.14883,-0.0496 0.29766,-0.0496 0.14883,0 0.29766,0 0.14882,0 0.19843,-0.0992 -0.29765,-0.0992 -0.14882,-0.39687 0.14882,-0.29766 -0.0496,-0.49609 -0.39688,0.0992 -0.59532,0.39687 -0.19843,0.24805 -0.69453,0.19844 0,0.24805 -0.14883,0.39687 -0.14882,0.0992 -0.34726,0.19844 -0.14883,0.0496 -0.29766,0.14883 -0.14883,0.0496 -0.19844,0.24805 0.44649,0.0496 0.54571,0.14882 0.14883,0.0992 0.0496,0.19844 -0.4961,0.24805 -0.54571,0.29766 0,0 -0.0992,-0.0992 -0.39688,0.14883 -0.44649,0.24805 -0.0496,0.0496 -0.14883,0.0992 -0.44648,-0.19843 -0.49609,-0.0496 -0.0496,0.14882 -0.19844,0.19843 -0.39687,0 -0.49609,0 -0.0992,0 -0.14883,0.0496 0.0496,0.29766 0.24805,0.29766 0.24804,0 0.34726,-0.19844 0.0496,0.29766 -0.0496,0.39688 -0.0496,0.0496 -0.19843,0.0992 -0.0992,0.0496 -0.24805,0.0992 -0.0992,0 -0.14883,0.14883 -0.34727,0.24805 -0.49609,0.39688 -0.0992,0.14882 -0.44649,0.0992 -0.64492,0.49609 -0.99219,0.79375 -0.29765,0.24804 -0.29765,0.89296 0.39687,-0.0992 0.84336,-0.29765 0.49609,-0.19844 0.74414,0.0496 0.24805,-0.44649 0.44648,-0.54571 l 0.69453,-0.29765 q 0.0992,-0.24805 0.0992,-0.29766 0.0496,-0.0992 0.0496,-0.24805 0.64492,-0.14882 0.84336,-0.29765 0.19844,-0.19844 0.19844,-0.29766 0.29766,-0.14883 0.39687,-0.29765 0.14883,-0.19844 0.4961,-0.29766 0.14883,0 0.19844,0.19844 0.0496,0.14883 0.0992,0.39687 -0.14882,0.0496 -0.34726,0.0496 -0.19844,0 -0.24805,0.19844 -0.24805,0.5457 -0.44648,0.59531 -0.19844,0.0496 -0.24805,0.24805 -0.0992,-0.24805 -0.39687,-0.0992 -0.29766,0.0992 -0.39688,0.24805 -0.34727,0.39687 -0.44648,0.44648 -0.0992,0 -0.14883,0.0992 0.14883,0.0496 0.24804,-0.0992 0.14883,-0.19844 0.29766,0 -0.74414,0.49609 -1.43867,0.99219 -0.69453,0.44648 -1.48828,0.89297 0,0.44648 0.0992,0.64492 0.0992,0.14883 0.24804,0.34726 0.0992,-0.29765 0.24805,-0.29765 0.14883,0 0.24805,0.0496 0.0992,-0.19844 0.24804,-0.44649 0.19844,-0.24804 0.39688,-0.49609 0.5457,-0.29766 0.5457,-0.19844 0.0496,0.0496 0.14883,0.0496 0.24805,-0.29765 0.34727,-0.29765 0.0992,-0.0496 0.24804,0.0992 -0.24804,-0.39687 -0.34726,-0.49609 0.19843,-0.0496 0.29765,-0.14883 0.0992,-0.0992 0.19844,-0.14883 0.14883,-0.19843 0.14883,-0.34726 0.0496,-0.14883 0.24805,-0.19844 0.24804,0.19844 0.64492,0.34727 0,-0.39688 0.14883,-0.39688 0.19843,-0.0496 0.29765,0.0496 -0.14883,-0.24805 -0.0496,-0.34726 0.14883,-0.14883 0.0992,-0.39688 0.14883,0.39688 0.19844,0.69453 0.0496,0.24805 0.24805,0.0496 0,0.84336 -0.44649,1.09141 -0.44648,0.19843 -0.79375,0.29765 0.0496,0.0992 -0.14883,0.24805 -0.19843,0.0992 -0.44648,0 -0.0992,0.29766 -0.24805,0.49609 -0.14883,0.19844 -0.49609,0.19844 -0.0992,0.24805 -0.34727,0.34727 -0.19843,0.0496 -0.34726,0.24804 -0.34727,0.14883 -0.64492,0.34727 -0.24805,0.19844 -0.4961,0.44648 -0.19844,0.19844 -0.29765,0.44649 -0.0496,0.24805 0.24804,0.5457 0.0496,-0.34726 0.0992,-0.44648 0.0992,-0.0992 0.24805,-0.19844 0.49609,0.44648 0.69453,0.14883 0.0992,-0.24805 0.19844,-0.34727 0.0992,-0.0992 0.34726,0.0992 0.74414,0 0.99219,-0.19844 0.24805,-0.24804 0.0496,-0.44648 -0.14883,-0.34727 -0.19844,-0.44649 -0.0496,-0.0992 0,-0.19843 0.39688,-0.19844 0.44649,-0.14883 0.0992,0 0.39687,0.0496 0.39688,-0.0496 0.74414,0.0496 0.34727,0.0496 0.59531,-0.14883 0.0992,-0.59531 0.54571,-0.59531 0.44648,-0.0496 0.89297,-0.29766 z m -2.23242,-0.99219 q -0.4961,0 -0.54571,0 -0.44648,0.24805 -0.49609,0.19844 -0.0496,-0.0992 -0.19844,-0.0496 0.29766,0.24805 0.54571,0.19844 0.29765,-0.0992 0.69453,-0.34727 z m -3.62149,-1.78593 q -0.24804,0.14882 -0.49609,0.0496 -0.19844,-0.0992 -0.24805,0.14883 0.54571,0 0.74414,-0.19843 z m 5.65547,4.7625 q 0.0992,-0.24805 0,-0.44649 -0.0992,-0.24805 0,-0.49609 -0.24804,-0.0496 -0.34726,-0.0496 -0.0496,-0.0496 -0.24805,0.0496 -0.14883,0.34726 -0.29766,0.5457 -0.0992,0.14883 -0.34726,0.24805 -0.44649,0.0992 -0.4961,0.14883 -0.0496,0 -0.14882,0.0496 -0.29766,0.59532 -0.59532,0.74415 -0.24804,0.0992 -0.34726,0.44648 0.29765,-0.0992 0.49609,-0.19844 0.24805,-0.14883 0.5457,0 0,-0.34726 0.24805,-0.24804 0.29766,0.0496 0.34727,-0.24805 0.19843,-0.14883 0.44648,-0.39688 0.29766,-0.24804 0.74414,-0.14882 z m -1.93476,-0.64493 q -0.24805,0.0992 -0.34727,0 -0.0496,-0.0992 -0.19844,-0.14882 0,0.0992 0,0.29765 0,0.14883 -0.14882,0.24805 -0.39688,0.14883 -0.54571,0.14883 -0.0992,0 -0.0992,0.0992 0.24805,0.0496 0.4961,0.0496 0.29765,-0.0496 0.39687,0.19844 -0.0496,-0.69453 0.0496,-0.64492 0.0992,0 0.19844,0 z m -2.13321,-1.19062 q -0.19843,-0.14883 -0.39687,-0.0992 -0.19844,0 -0.19844,0.19844 0.19844,0 0.29766,0.0496 0.14883,0 0.29765,-0.14883 z m -1.88515,-0.94258 q -0.14883,0.19844 -0.39688,0.0496 -0.19844,-0.14883 -0.29765,0 0.44648,0.29766 0.49609,0.24805 0.0496,-0.0496 0.14883,-0.0496 z m 3.37343,4.16719 q -0.49609,0.0992 -0.74414,0.0992 -0.19843,0 -0.24804,0.14882 0.5457,0.14883 0.5457,0.0496 0.0496,-0.14882 0.14883,-0.19843 z m 0.24805,0.44648 q -0.44648,0.19844 -0.49609,0.19844 -0.0496,-0.0496 -0.14883,-0.0496 0,0.49609 0.24805,0.29766 0.29765,-0.19844 0.39687,-0.44649 z m -0.59531,-1.0914 q 0.0496,-0.4961 -0.0496,-0.54571 -0.0496,-0.0496 -0.19844,0 -0.14883,0 -0.29765,0.0992 -0.14883,0.0496 -0.14883,0.14883 -0.24805,-0.0992 -0.44649,0.14883 -0.14882,0.19844 -0.44648,0.24804 -0.34727,0.44649 -0.49609,0.44649 -0.0992,0 -0.14883,0.0992 -0.39688,0.44648 -0.89297,0.74414 -0.44649,0.24805 -0.34727,0.89297 0.24805,0 0.29766,-0.0992 0.0992,-0.0992 0.19844,-0.24805 0.19843,0.24805 0.19843,0.0496 0.0496,-0.24805 0.34727,-0.19844 0.29766,-0.24804 0.29766,-0.34726 0,-0.0992 0.0992,-0.19844 0.29766,-0.19844 0.34727,-0.29766 0.0992,-0.0992 0.19844,-0.14882 0.14883,0.14882 0.19844,0.14882 0.0992,0 0.34726,0.14883 0.24805,-0.39687 0.24805,-0.49609 0,-0.0992 0.14883,-0.0496 0.0496,-0.0496 -0.19844,0 -0.19844,0 -0.34727,0.0992 0,-0.39688 0.24805,-0.4961 0.29766,-0.0992 0.49609,-0.29765 z m -13.44414,-10.71563 q -0.29766,-0.34726 -0.39688,-0.29765 -0.0992,0.0496 -0.29765,0.0496 0.34726,0.34727 0.39687,0.19844 0.0992,-0.19844 0.29766,0.0496 z m 0.0496,0.29766 q -0.0992,-0.14883 -0.39688,-0.14883 -0.29765,-0.0496 -0.29765,0.19844 0.24804,-0.0496 0.69453,-0.0496 z m 0.79375,-1.93477 q -0.54571,-0.19844 -0.64492,-0.29765 -0.44649,0.14882 -0.74414,0.39687 -0.24805,0.24805 -0.64493,0.29766 0.0992,0.24804 -0.19843,0.34726 -0.24805,0.0496 -0.34727,0 -0.0992,0.29766 -0.19844,0.34727 -0.0496,0.0496 -0.29765,0 -0.0992,0.19844 -0.24805,0.39687 -0.0992,0.14883 -0.39688,0.24805 -0.29765,0 -0.5457,0.0496 -0.0992,-0.24805 -0.29765,-0.14883 -0.14883,0.0992 -0.14883,-0.24805 0.24804,0.0496 0.39687,0 0.19844,-0.0496 0.39688,-0.0992 -0.19844,-0.39688 0.0992,-0.59532 0.29765,-0.19843 0.59531,-0.44648 -0.14883,-0.0992 -0.29766,0 -0.14883,0.0992 -0.24804,0 0,-0.24805 0.19843,-0.24805 0.19844,-0.0496 0.19844,-0.29765 -0.34727,-0.0496 -0.79375,0.0496 -0.44648,0.0496 -0.69453,0.14882 -0.0496,0.24805 0,0.39688 0.0992,0.0992 0.19844,0.29765 -0.14883,0.14883 -0.24805,0.44649 -0.0496,0.29766 -0.0496,0.64492 0,0.29766 0.0992,0.49609 0.14883,0.19844 0.44648,0.0992 -0.24804,0.39688 -0.14882,0.44649 0.14882,0 0.19843,0.0992 -0.29765,0.14882 -0.29765,0.39687 0,0.19844 0.0992,0.19844 0.0992,-0.24805 0.24804,-0.0992 0.19844,0.0992 0.39688,-0.0992 0.49609,-0.24805 0.84336,-0.19844 0.39687,0.0496 0.5457,-0.0496 -0.0992,0 -0.24805,0 -0.0992,-0.0496 -0.29765,-0.0496 0.44648,-0.64492 0.19843,-0.69453 0.24805,-0.29765 0.34727,-0.44648 0.0992,-0.14883 0.19844,-0.24805 0.0992,-0.14883 0.19843,-0.24804 0.0992,-0.0992 0.0992,-0.19844 0.54571,-0.0496 0.74414,-0.14883 0.19844,-0.0992 0.4961,0 0.0496,-0.14883 -0.0496,-0.29766 -0.0992,-0.14882 0.0496,-0.24804 0.44648,-0.34727 0.5457,-0.34727 0.14883,0 0.24805,-0.0496 z m 12.2039,14.73399 q -0.14882,-0.14883 -0.0496,-0.24805 0.14883,-0.0992 0,-0.34727 -0.29765,0.0496 -0.49609,0.24805 -0.14883,0.19844 -0.39687,0.29766 0.24804,-0.4961 0.14882,-0.4961 -0.0992,-0.0496 0.0496,-0.14883 0.34727,0.0992 0.44649,0 0.0992,-0.14882 0.24804,-0.19843 -0.14882,-0.0992 -0.34726,-0.0496 -0.19844,0 -0.39688,-0.0496 -0.49609,0.34726 -0.64492,0.59531 -0.0992,0.19844 -0.24804,0.39688 0.39687,0.14882 0.64492,-0.0992 0,0.34726 -0.14883,0.39687 -0.14883,0 -0.34727,0.0496 -0.24804,0.39688 -0.64492,0.69453 -0.34726,0.24805 -0.74414,0.4961 -0.0992,0.39687 -0.0496,0.79375 0.0496,0.34726 -0.0496,0.64492 0.39688,-0.39688 0.74414,-0.64492 0.39688,-0.29766 0.64492,-0.84336 0.39688,-0.29766 0.39688,-0.29766 0.0496,-0.0496 0,-0.19844 0.19844,-0.0496 0.34727,-0.19843 0.14882,-0.14883 0.39687,-0.14883 0.19844,-0.34727 0.24805,-0.44649 0.0992,-0.0992 0.24804,-0.19843 z m 3.32383,-2.0836 q -0.24804,0 -0.34726,0.14883 -0.0992,0.14883 -0.39688,0.14883 0,0.39687 -0.44648,0.44648 -0.14883,0.34727 -0.44649,0.59532 -0.24804,0.24804 -0.5457,0.49609 -0.29766,0.19844 -0.5457,0.49609 -0.24805,0.24805 -0.39688,0.64492 -0.79375,0.64493 -1.43867,1.19063 -0.64492,0.49609 -1.19063,1.19062 -0.19843,0.54571 -0.14882,0.54571 0.0992,0 0.0992,0.0992 -0.34727,0.19843 -0.54571,0.59531 -0.19844,0.34726 -0.0992,0.99219 0.44649,0.0992 0.44649,0.24804 0.0496,0.0992 -0.0992,0.19844 -0.29766,0.49609 -0.34727,0.99219 -0.0496,0.44648 0,0.94258 0.39688,0.0496 0.59532,0.14882 0.19843,0.0992 0.44648,0.19844 -0.0496,0.19844 -0.24805,0.19844 -0.19843,0 -0.29765,0.0992 -0.0496,0.14883 -0.14883,0.29765 -0.0992,0.14883 -0.14883,0.29766 -0.0496,0.14883 -0.0496,0.29766 0.0496,0.0992 0.29766,0.19843 -0.0992,-0.39687 0.0992,-0.39687 0.24804,-0.0496 0.44648,-0.14883 0.19844,-0.34726 0.34727,-0.59531 0.19843,-0.24805 0.5457,-0.14883 0.0496,-0.5457 0.0992,-0.59531 0.0992,-0.0496 0.0496,-0.19844 0.34726,-0.49609 0.49609,-0.44648 0.19844,0 0.29766,-0.24805 0,-0.14883 0.29765,-0.34727 0.29766,-0.19843 0.69454,-0.0992 -0.24805,-0.4961 -0.0992,-0.64493 0.14882,-0.14882 0.29765,-0.24804 0.39688,0.0992 0.4961,0.14882 0.0992,0 0.14882,-0.0992 -0.0496,-0.14883 -0.29765,-0.0992 -0.24805,0.0496 -0.34727,-0.0496 0.19844,-0.24805 0.39688,-0.29766 0.24804,-0.0496 0.49609,-0.19844 0.24805,0.0496 0.34727,-0.0496 0.0992,-0.0992 0.24804,-0.19843 0.29766,-0.34727 0.34727,-0.4961 0.0992,-0.14882 0.34727,-0.14882 0,-0.39688 0,-0.74415 0.0496,-0.39687 -0.19844,-0.49609 0.24804,-0.44648 0.34726,-0.84336 0.14883,-0.44648 0.0496,-1.0418 -0.49609,0.24805 -0.89297,0.59532 -0.34726,0.29765 -0.74414,0.59531 0.0496,-0.14883 -0.0496,-0.24805 -0.0496,-0.0992 -0.0992,-0.29765 0.29765,-0.0496 0.29765,-0.24805 0.0496,-0.19844 0.29766,-0.39688 0.29765,-0.49609 0.19844,-0.5457 -0.0496,-0.0496 0,-0.14883 0.29765,-0.14882 0.34726,-0.0496 0.0496,0.0496 0.19844,0.0496 0.14883,-0.5457 0.44648,-1.04179 0.34727,-0.54571 0.0496,-1.24024 z m -0.39687,7.44141 q -0.54571,0.24805 -0.94258,0.59531 -0.34727,0.34727 -0.69453,0.74414 0.14883,0.0992 0.29765,0.0992 0.14883,-0.0496 0.29766,-0.0992 0.14883,-0.0992 0.29766,-0.14883 0.14882,-0.0496 0.34726,0 0.0496,-0.19843 0.0992,-0.29765 0.0992,-0.14883 0,-0.34727 0.14883,-0.0992 0.24805,-0.19844 0.0992,-0.0992 0.0496,-0.34726 z M 125.83248,145.7272 q -0.19844,0 -0.39688,0.0496 -0.14882,0 -0.14882,0.14883 -0.4961,0.5457 -0.59532,0.74414 -0.0992,0.14883 -0.24804,0.29765 -0.34727,-0.0496 -0.44649,0.14883 -0.0992,0.14883 -0.39687,0.0992 -0.34727,0.59531 -0.79375,1.0418 0.0496,0.19844 -0.0992,0.39687 -0.0992,0.19844 -0.34727,0.0992 0.0992,0.24805 0.24805,0.19844 0.19844,-0.0992 0.29766,0.0992 0.0496,-0.29766 0.24804,-0.4961 0.19844,-0.19843 0.54571,0 0.19843,-0.34726 0.64492,-0.29765 0.69453,-0.69453 0.94258,-1.28985 0.29765,-0.59531 0.5457,-1.24023 z m 13.98984,18.75234 q -0.39687,-0.19843 -0.59531,-0.0496 -0.14883,0.0992 -0.44648,0.19844 0.44648,0.14883 0.69453,0.14883 0.24804,-0.0496 0.34726,-0.29766 z m -16.91679,-16.76797 q -0.29766,-0.29765 -0.54571,-0.0992 -0.24804,0.14882 -0.49609,0.24804 0.14883,0.0992 0,0.29766 -0.0992,0.14883 0.0496,0.24805 0.24804,-0.14883 0.39687,-0.39688 0.19844,-0.24805 0.59532,-0.29766 z m 16.9664,17.11524 -0.39687,0.39687 q -0.89297,0.44649 -1.19063,0.89297 -0.24805,0.39688 -0.74414,0.39688 -0.29766,0.39687 -0.74414,0.84336 -0.44648,0.39687 -0.84336,0.84336 0.14883,0.29765 0,0.5457 0.44649,-0.44648 0.69453,-0.64492 0.29766,-0.24805 0.69453,-0.34727 0.69453,-0.64492 0.94258,-1.0914 0.24805,-0.44649 0.69453,-0.44649 -0.0496,-0.24805 0.0496,-0.39687 0.0992,-0.19844 0.24805,-0.29766 0.19844,-0.14883 0.34726,-0.29766 0.19844,-0.14882 0.24805,-0.39687 z m 1.98438,1.48828 q -0.24805,-0.24805 -0.44649,-0.0992 -0.19844,0.14883 -0.49609,0.24805 0,0.19844 -0.14883,0.34726 -0.14883,0.0992 -0.24805,0.0496 0,-0.34726 -0.19843,-0.24804 -0.14883,0.0496 -0.34727,0.0496 0.39688,0.29765 0.39688,0.44648 0,0.14883 -0.14883,0.14883 -0.14883,-0.0992 -0.29766,-0.19844 -0.0992,-0.14883 -0.24805,0 0,-0.44648 0.14883,-0.44648 0.14883,0 0.34727,-0.0496 0.14883,-0.39688 0.64492,-0.4961 0.5457,-0.14882 0.94258,-0.0992 -0.19844,-0.34726 -0.14883,-0.44648 0.0496,-0.0992 0.19844,-0.14883 0.0496,-0.24804 -0.0496,-0.39687 -0.0496,-0.14883 0.0496,-0.29766 -0.34727,-0.0992 -0.64492,-0.0496 -0.24805,0.0496 -0.34727,0.29766 -0.5457,0.29765 -0.49609,0.39687 0.0992,0.0992 0.0992,0.24805 -0.34726,0.0992 -0.39687,0.19844 0,0.0992 -0.0992,0.19843 -0.24805,-0.14882 -0.34726,0.0992 -0.0496,0.19844 -0.29766,0.14883 -0.0992,0.5457 -0.24805,0.5457 -0.0992,-0.0496 -0.19844,0.0496 -0.0992,0.44649 -0.29765,0.4961 -0.14883,0.0496 -0.14883,0.29765 0.24805,-0.14882 0.44648,-0.0992 0.24805,0.0496 0.4961,0.14882 0.0992,-0.24804 0.29765,-0.34726 0.24805,-0.14883 0.34727,0.0992 -0.34727,0.0992 -0.59531,0.34726 -0.19844,0.24805 -0.64492,0.29766 -0.14883,0.39687 -0.54571,0.44648 -0.34726,0.0496 -0.49609,0.4961 -0.29766,0.39687 -0.64492,0.49609 -0.29766,0.0496 -0.44649,0.29766 -0.39687,0.29765 -0.5457,0.49609 -0.14883,0.19844 -0.19844,0.49609 0,0.24805 0,0.59532 0.0496,0.29765 -0.0496,0.59531 0.39688,-0.29766 0.54571,-0.44649 0.19843,-0.19843 0.34726,-0.34726 0.19844,-0.19844 0.39688,-0.29766 0.19843,-0.0992 0.49609,-0.0496 0,-0.0992 0,-0.24804 0.0496,-0.19844 0.14883,-0.29766 0.59531,-0.19844 0.64492,-0.0992 0.0496,0.0992 0.19844,0.19844 0.0992,-0.24805 -0.14883,-0.29766 -0.19844,-0.0992 -0.29766,-0.19843 0.14883,-0.0496 0.19844,-0.14883 0.0992,-0.14883 0.34727,-0.14883 0.14882,-0.34727 0.19843,-0.39688 0.0992,-0.0992 0.24805,-0.0496 0,-0.39687 0.34727,-0.39687 0.34726,-0.0496 0.44648,-0.24805 0.5457,-0.19843 0.74414,-0.44648 0.24805,-0.29766 0.64492,-0.39688 0,-0.59531 0.19844,-0.79375 0.24805,-0.19843 0.34727,-0.5457 z m 0.24804,9.47539 q -0.24804,-0.24805 -0.19843,-0.64492 0.0992,-0.44649 -0.14883,-0.79375 0.0992,-0.34727 0.14883,-0.74414 0.0992,-0.44649 -0.14883,-0.74414 -0.4961,0.49609 -0.84336,0.39687 -0.0496,0.14883 -0.0992,0.29766 -0.0496,0.14883 -0.0992,0.29766 0.44649,-0.0992 0.64492,0.0992 0.24805,0.14883 0.24805,0.39688 0,0.19844 -0.19844,0.44648 -0.14883,0.19844 -0.49609,0.19844 0,0.24805 -0.0496,0.34727 -0.0496,0.0992 -0.0992,0.19843 0.24805,0.19844 0.44648,0.19844 0.24805,-0.0496 0.44649,0.19844 z m -4.36562,-4.71289 q -0.34727,0.14883 -0.4961,0.14883 -0.14882,-0.0496 -0.0992,0.0992 0.5457,-0.0496 0.5457,-0.0992 0,-0.0992 0.0496,-0.14883 z m 5.15937,6.64766 q 0.19844,-0.24805 0.0992,-0.4961 -0.0496,-0.29765 -0.44648,-0.24804 0.0496,0.24804 -0.0496,0.34726 -0.0496,0.0496 -0.0496,0.24805 z m -0.94257,-7.14375 q -0.0992,-0.0992 -0.19844,-0.19844 -0.0496,-0.14883 -0.24805,-0.14883 -0.0992,0.24805 -0.34726,0.24805 -0.24805,0 -0.34727,0.0992 -0.14883,-0.44649 0.24805,-0.64493 0.39687,-0.19843 0.64492,-0.69453 -0.19844,0 -0.34727,0.0496 -0.14883,0 -0.24804,0 0.0992,-0.19843 0.5457,-0.14883 0.0496,-0.24804 -0.0496,-0.39687 -0.0992,-0.19844 0.14883,-0.39688 -0.59531,-0.19843 -0.64492,-0.29765 0,-0.0992 -0.14883,0 -0.14883,0.29765 -0.44649,0.49609 -0.24804,0.19844 -0.5457,0.44649 -0.29766,0.24804 -0.69453,0.24804 -0.44649,0.59532 -0.5457,0.84336 0.34726,0.14883 0.49609,0 0.19844,-0.14883 0.44648,-0.14883 -0.14882,0.44649 -0.24804,0.4961 -0.0496,0 0,0.14883 -0.39688,0.14882 -0.39688,0.24804 0,0.0992 -0.0992,0.19844 -0.29765,-0.29766 -0.44648,-0.19844 -0.0992,0.0496 -0.0992,0.29766 0.24805,0.19844 0,0.24805 -0.19844,0.0496 -0.44648,0.0992 -0.19844,0.0496 -0.34727,0.19843 -0.0992,0.0992 0,0.44649 -0.49609,0.24804 -0.74414,0.44648 -0.19844,0.19844 -0.44648,0.44649 -0.19844,0.19843 -0.39688,0.49609 -0.14883,0.24805 -0.14883,0.64492 0.0992,-0.19844 0.24805,-0.0992 0.14883,0.0992 0.29766,0.0496 0.49609,0.14883 0.34726,0.29766 -0.14883,0.0992 0,0.19844 0,0.49609 -0.0496,0.64492 -0.34726,0.0992 -0.39687,0.14883 -0.0496,0.0496 -0.14883,0.0496 -0.34727,0.74414 -0.94258,1.14101 -0.59531,0.39688 -1.09141,0.94258 0.29766,0.14883 0.54571,-0.19844 0.29765,-0.34726 0.74414,-0.34726 0.5457,-0.69454 1.19062,-1.14102 0.69453,-0.44648 1.33946,-0.99219 0.49609,-0.19843 0.79375,-0.39687 0.34726,-0.19844 0.49609,-0.19844 0.44648,-0.49609 0.5457,-0.34727 0.14883,0.0992 0.14883,-0.0992 0.24805,-0.64493 0.5457,-0.84336 0.29766,-0.24805 0.64493,-0.14883 0,-0.24805 -0.24805,-0.19844 -0.19844,0 -0.24805,-0.14883 0.4961,0.0992 0.59531,-0.0496 0.29766,-0.29765 0.19844,-0.39687 -0.0496,-0.0992 -0.14883,-0.14883 0.39688,-0.14883 0.34727,-0.19844 -0.0496,-0.0496 0,-0.24804 0.24805,0.0992 0.24805,-0.29766 0,-0.39688 0.0992,-0.5457 z m -1.28985,4.96093 q -0.24805,-0.14882 -0.39687,-0.29765 -0.14883,-0.14883 -0.29766,0.0992 0.39688,0.24804 0.34727,0.39687 0,0.14883 -0.0992,0.14883 0.29765,0.14883 0.44648,-0.34727 z m 1.63711,0.94258 q -0.14883,-0.0992 -0.19844,-0.19844 -0.0496,-0.14882 -0.24804,-0.19843 -0.69453,-0.0992 -0.54571,0.14883 -0.44648,0.14882 -0.49609,0.0992 -0.0496,-0.0496 -0.14883,-0.0496 -0.64492,0.34727 -0.94258,0.69454 -0.29765,0.29765 -0.79375,0.49609 0.14883,0.24805 0.44649,0.29766 0.34726,0.0496 0.69453,0 0.39687,-0.0496 0.74414,-0.0992 0.34727,-0.0496 0.59531,0 0.24805,-0.34727 0.34727,-0.64492 0.14883,-0.29766 0.5457,-0.54571 z m -1.38906,-2.03398 q -0.19844,-0.34727 -0.29766,-0.34727 -0.0992,-0.0496 -0.19844,0.0496 -0.19843,0.74414 -0.59531,0.79375 -0.39687,0 -0.64492,0.24805 -0.0496,0.14883 -0.39687,0.39687 -0.29766,0.19844 -0.54571,0.14883 -0.44648,0.34727 -0.39687,0.44649 0.0992,0.0992 0,0.0992 -0.34727,-0.0496 -0.54571,0.19844 -0.14882,0.19844 -0.39687,0.19844 -0.19844,0.14883 -0.29766,0.34727 -0.0496,0.14882 -0.34726,0 0.0992,0.24804 0.0992,0.39687 0,0.14883 -0.0992,0.24805 0.19843,0.14883 0.39687,0.0496 0.19844,-0.0992 0.34727,-0.19844 0.19844,-0.14883 0.39687,-0.24805 0.19844,-0.0992 0.4961,0 0.14882,-0.0992 0.34726,-0.19844 0.24805,-0.14882 0,-0.29765 0.24805,-0.29766 0.44649,-0.34727 0.24804,-0.0496 0.19843,-0.24804 0,-0.19844 0.0992,-0.24805 0.54571,0.0496 0.4961,0 0,-0.0992 0.24804,-0.0496 0.0496,-0.64492 0.29766,-0.69453 0.29766,-0.0992 0.44648,-0.29766 0.24805,0 0.29766,-0.0992 0.0496,-0.0992 0.14883,-0.34726 z m -4.51445,0.44648 q 0.0496,-0.0992 0.0992,-0.29765 0.0992,-0.19844 -0.0992,-0.24805 -0.0992,0.29766 -0.0992,0.44648 0,0.0992 0.0992,0.0992 z m 5.10976,-31.99804 q -0.0992,0.44648 -0.49609,0.64492 -0.34727,0.19844 -0.59532,0.5457 -0.79375,0.24805 -0.99218,0.64492 -0.14883,0.34727 -0.69453,0.34727 -0.34727,0.34726 -0.84336,0.44648 -0.24805,0.64492 -0.54571,0.74414 -0.29765,0.0992 -0.49609,0.19844 0.29766,-0.5457 0.19844,-0.5457 -0.0496,-0.0496 0,-0.14883 0.24804,0 0.49609,-0.34727 -0.19844,-0.49609 0.0992,-0.34726 0.29766,0.0992 0.24805,-0.24805 0.19843,0.0992 0.24804,0.14883 0.0496,0 0.24805,0.0992 0.19844,-0.39688 0.19844,-0.54571 0.0496,-0.14882 0.29765,-0.0992 0.24805,-0.34727 0.19844,-0.39688 0,-0.0496 0.0992,-0.29765 0.19844,0.0496 0.29766,0.14882 0.14882,0.0496 0.34726,-0.0496 -0.0496,-0.49609 0.24805,-0.5457 0.34726,-0.0992 0.59531,0.0992 -0.0992,-0.19844 -0.0496,-0.24805 0.0496,-0.0992 0,-0.29765 0.24805,0.0496 0.4961,0 0.24804,-0.0992 0.39687,0.0496 z m -2.72851,3.32382 q -0.0992,0.0992 -0.29766,0.0992 -0.14883,-0.0496 -0.24805,0.0496 0.34727,-0.34726 0.39688,-0.24805 0.0496,0.0496 0.14883,0.0992 z m -1.63711,-1.0914 q -0.24805,0.0992 -0.24805,0.29765 0,0.14883 0,0.29766 -0.14883,-0.29766 -0.14883,-0.34727 0.0496,-0.0496 0,-0.29765 z m 1.83554,2.77812 q -0.24804,-0.0496 -0.24804,0.14883 0,0.14883 -0.24805,0.14883 0.49609,-0.4961 0.49609,-0.29766 z m -2.38125,-2.23242 q -0.14883,0.0992 -0.29765,0.19844 -0.0992,0.0496 -0.24805,0.0496 0.14883,-0.39688 0.24805,-0.34727 0.14882,0.0496 0.29765,0.0992 z m 4.51446,6.15156 q -0.14883,0.0992 -0.39688,0.0992 -0.24805,0 -0.39687,-0.0992 0.44648,-0.0992 0.44648,-0.19843 0.0496,-0.0992 0.14883,-0.14883 z m -1.68672,0.34727 q 0.0992,0.24805 -0.14883,0.19844 -0.19844,-0.0496 -0.39688,0 0.19844,-0.0496 0.24805,-0.14883 0.0992,-0.0992 0.29766,-0.0496 z m 1.78593,8.38398 q -0.64492,0.19844 -0.74414,0.54571 0.14883,-0.29766 0.29766,-0.44649 0.19844,-0.19844 0.44648,-0.0992 z m -0.84335,-1.38906 q -0.44649,0.0992 -0.4961,0.39688 -0.0496,0.29765 -0.14883,0.39687 -0.29765,0.19844 -0.64492,0.39688 -0.29765,0.14882 -0.69453,0.24804 -0.0496,-0.19844 0.24805,-0.29765 0.29765,-0.14883 0.5457,-0.19844 0.0992,-0.0992 0.19844,-0.24805 0.0992,-0.19844 0.34726,-0.0496 -0.24804,-0.24804 0,-0.5457 0.24805,-0.29766 0.64493,-0.0992 z m -1.14102,2.77813 q -0.29766,0.39687 -0.34727,0.44648 -0.0496,0.0496 -0.14882,0.0496 0.14882,-0.24805 0.24804,-0.29766 0.0992,-0.0496 0.0992,-0.19843 z m -0.74414,1.14101 q -0.39688,0.0992 -0.74414,0.14883 0.29765,0 0.44648,-0.14883 0.14883,-0.19844 0.29766,0 z m -0.79375,0.44649 q 0.14883,0.19843 -0.14883,0.29765 -0.29766,0.0496 -0.39687,-0.0992 0.34726,-0.0496 0.5457,-0.19843 z m 3.22461,6.15156 q -0.4961,0.0992 -0.64492,0.0992 -0.0992,-0.0496 -0.0992,-0.19844 0.24804,0.0992 0.34726,0.14883 0.14883,0 0.39688,-0.0496 z m -0.0496,1.24023 q -0.0992,0.24805 -0.34727,0.29766 -0.24804,0 -0.34726,0.14883 -0.14883,-0.0992 -0.24805,-0.19844 -0.0992,-0.0992 -0.34726,0 0.0496,-0.49609 0.49609,-0.39688 0.49609,0.0496 0.79375,0.14883 z m -0.39688,1.73633 q -0.0992,0.14883 -0.29765,0.19844 -0.14883,0.0496 -0.39688,0.0992 0.29766,-0.14883 0.34727,-0.24805 0.0496,-0.0992 0.34726,-0.0496 z m -0.5457,-0.94258 q -0.29766,0.34727 -0.5457,0.4961 -0.24805,0.14882 -0.39688,0.39687 0.34727,-0.0992 0.84336,-0.19844 0,0.34727 -0.29765,0.39688 -0.24805,0.0496 -0.34727,0.29765 -0.34727,-0.29765 -0.29766,-0.34726 0.0992,-0.0992 0,-0.14883 -0.24804,0.14883 -0.5457,0.0992 -0.29766,-0.0496 -0.5457,0.19844 0.44648,-0.39688 0.74414,-0.64492 0.34726,-0.24805 0.79375,-0.54571 -0.0496,-0.49609 0.14883,-0.34726 0.19843,0.14882 0.44648,0.0496 z m -1.48828,2.0836 q -0.19844,-0.0496 -0.24805,-0.0496 -0.0496,0 -0.29765,0.0496 -0.39688,0.19843 -0.19844,0.5457 -0.24805,0.19844 -0.34727,0 -0.0496,-0.24805 -0.29765,-0.0992 0.5457,-0.24805 0.59531,-0.5457 -0.34727,-0.54571 -0.24805,-0.54571 0.0992,-0.0496 0.19844,-0.0496 0.14883,0 0.24805,0 0.0992,-0.0496 0.0992,-0.19843 0.29765,0.29765 0.19843,0.34726 -0.0496,0.0496 0,0.19844 z m 39.12527,-2.87735 q 0.0496,0.44649 -0.0496,0.69453 -0.0992,0.24805 -0.14883,0.39688 -0.14883,0.44648 -0.24804,0.49609 -0.0496,0.0496 -0.14883,0.0992 0,0.64492 -0.0992,1.14102 -0.0992,0.49609 -0.44649,0.59531 0.0992,0.0992 0.0496,0.39687 -0.0496,0.24805 -0.44648,0.19844 0,0.39688 -0.24805,0.59531 -0.29765,-0.0496 -0.34726,0.14883 0,0.19844 0,0.39688 -0.39688,0.34726 -0.74414,0.74414 -0.34727,0.34726 -0.89297,0.5457 -0.34727,0.39688 -0.54571,0.49609 -0.14882,0.0992 -0.39687,0.0992 -0.14883,0.14883 -0.5457,0.39688 -0.39688,0.24805 -0.74414,0 -0.14883,0.29765 -0.44649,0.44648 -0.29766,0.0992 -0.69453,0.14883 -0.34727,0.0992 -0.69453,0.14883 -0.34727,0.0992 -0.64492,0.29766 -0.79375,0.0992 -1.28985,0.14882 -0.44648,0.0992 -0.99218,0.0496 -0.4961,0 -1.0418,-0.0496 -0.4961,-0.0496 -0.94258,0 -1.0418,-0.19843 -1.5875,-0.44648 -0.49609,-0.24805 -0.94258,-0.59531 -0.44648,-0.34727 -0.89297,-0.69453 -0.44648,-0.39688 -0.94257,-0.64493 -0.19844,-0.39687 -0.59532,-0.59531 -0.39687,-0.19844 -0.79375,-0.39687 0.0496,-0.69454 -0.5457,-1.24024 -0.34727,-0.0496 -0.44648,-0.0992 -0.0496,-0.0992 -0.14883,-0.19843 0.29765,-0.29766 0,-0.74415 -0.39688,-0.0496 -0.54571,-0.14882 -0.14882,-0.14883 -0.14882,-0.29766 0.0496,-0.19844 0.14882,-0.39687 0.0992,-0.19844 0.19844,-0.44649 -0.34726,-0.39687 -0.49609,-0.89297 -0.14883,-0.49609 -0.4961,-0.84336 0.0992,-0.29765 -0.14882,-0.0992 -0.19844,0.14883 -0.44649,0.0992 0.0992,-0.0992 0.14883,-0.19843 0.0992,-0.0992 0.34727,-0.0992 0.0496,-0.39688 0.0496,-0.74414 0.0496,-0.39688 -0.49609,-0.54571 0.24805,-0.24804 0.14883,-0.59531 -0.0992,-0.34727 0.24805,-0.44648 -0.64493,0.0992 -0.69454,0 0,-0.14883 -0.0496,-0.29766 0.34726,-0.0496 0.39687,-0.19844 0.0496,-0.14883 0.39688,-0.24804 -0.0992,-0.39688 -0.0992,-0.64493 0,-0.29765 0.0992,-0.44648 -0.34727,-0.39688 -0.24805,-0.39688 0.14883,-0.0496 0.19844,-0.14882 0.19843,-0.59532 0.0992,-0.79375 -0.0496,-0.24805 0.14883,-0.34727 -0.19843,-0.0992 -0.0992,-0.19844 0.14883,-0.14883 -0.0496,-0.34726 0.39688,-0.64492 0.44649,-0.94258 0.0992,-0.34727 0.14883,-0.69453 0.0496,-0.39688 0.0496,-0.69453 0.0496,-0.34727 0.19843,-0.59532 -0.24804,-0.34726 -0.14882,-0.49609 0.14882,-0.19844 0.24804,-0.44648 0.44649,-0.29766 0.4961,-0.29766 0.0992,0 0.14882,-0.0496 0.19844,-0.44648 0.29766,-0.74414 0.14883,-0.29766 0.24805,-0.59531 0.14883,-0.29766 0.29765,-0.54571 0.14883,-0.24804 0.4961,-0.34726 0.0496,-0.4961 0.24804,-0.74414 0.19844,-0.29766 0.44649,-0.59531 0.89297,-0.34727 1.48828,-0.89297 0.59531,-0.59532 1.43867,-0.94258 1.09141,-0.4961 2.13321,-0.84336 1.0914,-0.39688 2.1332,-0.29766 0.34726,-0.19843 0.94258,-0.19843 0.0496,0.14882 0.14882,0.24804 0.0992,0.0992 0.14883,0.24805 0.29766,0.0992 0.4961,0.14883 0.19843,0.0496 0.49609,0 0.19844,0.14883 0.49609,0.19843 0.29766,0 0.39688,0.19844 0.69453,0 1.24023,0.24805 0.54571,0.24805 0.99219,0.64492 0.49609,0.34727 0.99219,0.74414 0.49609,0.34727 1.0914,0.5457 -0.0992,0.39688 0.0496,0.69454 0.14883,0.29765 0.34727,0.5457 0.24805,0.19844 0.39687,0.44648 0.19844,0.24805 0.19844,0.54571 0.0992,0.14882 0.19844,0.29765 0.14883,0.14883 0.24805,0.34727 -0.0496,0.49609 0.19843,0.5457 0.24805,1.09141 0.34727,1.78594 0.0992,0.64492 0.44648,1.53789 -0.29765,0.49609 -0.19843,0.49609 0.14882,-0.0496 0.19843,0.0496 0.0496,0.59532 -0.24804,0.74414 0.59531,0.29766 0.24804,0.64493 -0.29765,0.29765 -0.39687,0.59531 -0.14883,0.39687 -0.0496,0.74414 0.0992,0.29765 -0.14883,0.5457 -0.64492,-0.29765 -1.28984,0.0992 -0.59531,-0.14883 -1.19063,-0.19844 -0.59531,-0.0496 -1.14101,0.19844 -0.59532,0.29766 -1.19063,0.14883 -0.5457,-0.19844 -1.19062,-0.24805 -1.38907,0 -2.77813,0.0496 -1.33945,0.0496 -2.77812,-0.14883 -0.29766,0.19844 -0.69453,0.19844 -0.39688,0 -0.79375,0 -0.34727,0 -0.64493,0.0992 -0.24804,0.0992 -0.29765,0.49609 0,0.59532 -0.0496,0.79375 -0.0496,0.14883 0.0992,0.29766 0,0.5457 0,0.74414 0,0.14883 -0.0496,0.34727 0.39687,0.14882 0.44648,0.5457 0.0992,0.39687 -0.34726,0.5457 0.0992,0.29766 0.0992,0.5457 0.0496,0.24805 0.14882,0.4961 0.24805,-0.14883 0.39688,0 0.14883,0.0992 0.14883,0.29765 0,0.14883 -0.14883,0.34727 -0.0992,0.19844 -0.34727,0.19844 0.19844,0.19844 0.19844,0.44648 0,0.24805 0.0992,0.54571 0.24805,0 0.29766,-0.0992 0.0496,-0.0992 0.24804,0 -0.24804,0.44648 -0.0496,0.5457 0.19844,0.0992 0.0496,0.34727 -0.0496,0.29765 0.19844,0.89296 0.29766,0.54571 0.79375,0.99219 0.69453,0.59531 1.28984,1.19063 0.64493,0.59531 1.53789,0.69453 0.64493,0.0992 1.28985,-0.0992 0.69453,-0.19844 1.48828,-0.29766 0.29766,-0.19843 0.64492,-0.29765 0.34727,-0.0992 0.69453,-0.14883 0.34727,-0.0992 0.64492,-0.19844 0.34727,-0.14883 0.4961,-0.44648 0.39687,-0.0992 0.59531,-0.34727 0.24805,-0.29766 0.69453,-0.39687 0.0992,-0.19844 0.24805,-0.24805 0.19844,-0.0496 0.19844,-0.39688 0.39687,-0.24804 0.74414,-1.04179 0.34726,-0.84336 0.44648,-1.43867 0.0992,-0.64493 -0.0496,-1.33946 -0.0992,-0.69453 -0.19844,-1.24023 0.0496,-0.64492 0,-0.89297 0,-0.29766 0.24805,-0.34727 0.0992,-0.39687 0.39688,-0.44648 0.29765,-0.0496 0.5457,0.0992 0.29766,0.0992 0.44648,0.34726 0.19844,0.19844 0.14883,0.44649 0.14883,0.39687 0,0.74414 -0.0992,0.29765 0.14883,0.49609 z m -4.56406,-14.08906 q -0.19844,-0.0992 -0.0496,-0.24805 0.19844,-0.19843 0,-0.29765 -0.0992,0.29765 -0.4961,0.39687 -0.34726,0.0992 -0.24804,0.39688 0.14883,-0.24805 0.39687,-0.24805 0.29766,0 0.39688,0 z m 2.33164,2.28203 q -0.0992,-0.34726 -0.19844,-0.34726 -0.0992,-0.0496 -0.24805,0.0496 -0.0992,0.0496 -0.29765,0.19844 -0.19844,0.0992 -0.44649,0 -0.0496,0.14883 -0.14883,0.29766 -0.0992,0.0992 -0.19843,0.19844 0.19843,-0.0496 0.34726,-0.0496 0.14883,-0.0496 0.34727,0.0992 0.29765,-0.19844 0.44648,-0.29766 0.14883,-0.14883 0.39688,-0.14883 z m -3.77031,-3.86953 q -0.29766,-0.0992 -0.69454,-0.24805 -0.39687,-0.19843 -0.64492,0 0.29766,0.14883 0.34727,0.54571 0.0992,0.34726 0.49609,0.44648 0.0992,-0.19844 0.24805,-0.34727 0.14883,-0.14882 0.24805,-0.39687 z m 2.57968,2.82773 q 0.24805,-0.14882 0.19844,-0.39687 0,-0.29766 -0.29766,-0.39688 -0.39687,0.39688 -0.64492,0.44649 -0.24804,0 -0.39687,0.19844 0.39687,-0.59532 0.5457,-0.64493 0.14883,-0.0992 0.19844,-0.29765 -0.24805,-0.0496 -0.34727,0 -0.0992,0 -0.19844,0.0992 -0.0992,0.0496 -0.24804,0.0992 -0.0992,0 -0.29766,-0.14883 -0.29765,0.49609 -0.69453,0.74414 -0.39687,0.19844 -0.49609,0.44648 0.34726,0.64492 0.24804,0.69453 -0.0496,0.0496 -0.0992,0.14883 0.0992,0.0992 0.14883,0.24805 0.0496,0.0992 0.24805,0.14883 0.14883,-0.34727 0.34727,-0.59532 0.24804,-0.24804 0.64492,-0.29765 0.0992,-0.24805 0.39687,-0.39688 0.34727,-0.19843 0.74414,-0.0992 z m 1.0418,1.5875 q -0.29766,-0.0992 -0.59531,0 -0.29766,0.0992 -0.54571,0.29766 -0.24804,0.14883 -0.5457,0.29766 -0.29766,0.14882 -0.59531,0.19843 -0.0992,0.0992 -0.19844,0.19844 -0.0992,0.0992 -0.19844,0.24805 -0.0992,0.14883 -0.24804,0.19844 -0.14883,0 -0.29766,0.0992 -0.14883,0.64493 0.34727,0.74415 0.14882,-0.44649 0.5457,-0.69454 0.39687,-0.24804 0.79375,-0.49609 0.14883,-0.49609 0.64492,-0.59531 0.5457,-0.14883 0.89297,-0.4961 z m 0.69453,1.09141 q 0,-0.5457 -0.29766,-0.59531 -0.29765,-0.0992 -0.64492,0 -0.29765,0.34726 -0.34726,0.24804 -0.0496,-0.0992 -0.24805,-0.0496 -0.14883,0.84335 -0.39687,0.89296 -0.19844,0 -0.29766,0.29766 -0.5457,0.0992 -0.79375,0.49609 -0.19844,0.39688 -0.64492,0.59532 0.0992,0.19843 0.44648,0.14882 0.39688,-0.0992 0.5457,-0.34726 0.14883,-0.0992 0.44649,-0.24805 0.29766,-0.14883 0.59531,-0.0992 0,-0.34726 0.39688,-0.44648 0.39687,-0.0992 0.5457,-0.34727 0.34727,-0.44648 0.69453,-0.5457 z m 0.39688,1.38906 q -0.29766,0.0992 -0.54571,0.19844 -0.24804,0.0496 -0.49609,0.19844 -0.5457,0.34726 -0.74414,0.74414 -0.14883,0.39687 -0.64492,0.49609 0.69453,-0.0992 0.74414,-0.19844 0.0992,-0.14882 0.39687,-0.0992 0.34727,-0.39688 0.54571,-0.4961 0.24804,-0.0992 0.44648,-0.14883 0.19844,-0.0992 0.29766,-0.19843 0.14882,-0.14883 0,-0.4961 z m -1.83555,0.24805 q -0.64492,0.24805 -1.19063,0.64492 -0.49609,0.34727 -1.04179,0.64492 -0.0992,0.24805 -0.0992,0.44649 0.0496,0.19844 0.24805,0.29765 0.0992,-0.34726 0.49609,-0.5457 0.39687,-0.19844 0.49609,-0.59531 0.4961,-0.24805 0.79375,-0.34727 0.29766,-0.14883 0.29766,-0.5457 z m 1.78594,2.28203 q -0.89297,0.24805 -1.38907,0.74414 -0.44648,-0.0496 -0.79375,0.29766 -0.34726,0.29765 -0.69453,0.5457 0.79375,0 1.38907,0 0.64492,0 1.24023,-0.14883 -0.0992,-0.79375 0.0992,-0.89297 0.19844,-0.14882 0.14883,-0.5457 z m -4.66328,1.53789 q -0.29766,-0.39687 -0.44649,-0.49609 0.44649,-0.94258 0.44649,-1.98438 -0.29766,-0.19843 -0.34727,-0.44648 -0.0496,-0.29766 0,-0.59531 0.0992,-0.29766 0.14883,-0.59532 0.0496,-0.29765 0,-0.49609 -0.29766,0.0992 -0.4961,0 -0.19843,-0.0992 -0.39687,-0.24805 0.34726,-0.59531 0.5457,-0.74414 0.19844,-0.19844 0.24805,-0.5457 -0.64492,-0.0992 -0.59531,-0.5457 0.0992,-0.4961 0.24804,-0.94258 -0.14882,-0.19844 -0.34726,-0.34727 -0.14883,-0.14883 -0.29766,-0.29765 0.0992,-0.14883 0.14883,-0.34727 0.0992,-0.19844 0.19844,-0.34727 -0.14883,-0.44648 -0.34727,-0.84335 -0.14883,-0.44649 -0.39687,-0.79375 -0.19844,-0.34727 -0.54571,-0.54571 -0.34726,-0.19844 -0.94257,-0.14883 -0.69454,-0.19843 -1.0418,-0.0496 -0.34727,0.0992 -0.79375,0.0992 -0.29766,0.24805 -0.5457,0.64493 -0.24805,0.34726 -0.69454,0.49609 -0.14882,0.0992 -0.34726,0.0496 -0.14883,-0.0992 -0.24805,0.14883 0.39688,0.0992 0.34727,0.19843 0,0.0992 0.0992,0.29766 -0.14883,0.14883 -0.34727,0.34727 -0.19844,0.19843 -0.34727,0.39687 -0.0992,0.19844 -0.0992,0.39688 0.0496,0.14882 0.39687,0.29765 -0.34726,0.54571 -0.49609,0.44649 -0.0992,-0.0992 -0.24805,-0.0992 0.0496,0.29765 0,0.44648 0,0.0992 -0.24805,0.0496 -0.14882,0.89297 -0.99218,1.48828 0.0496,0.39688 0.14882,0.39688 0.14883,0 0.14883,0.14883 -0.24804,0.19843 -0.29765,0.64492 -0.0496,0.44648 0,0.69453 -0.24805,0.84336 -0.24805,1.48828 0,0.64492 -0.24805,1.24023 0.14883,0.29766 0.19844,0.54571 0.0496,0.19844 0.0992,0.64492 1.28984,-0.0992 2.6293,-0.0496 1.38906,0 2.6789,0.0992 0.44649,0.0496 0.89297,0 0.49609,-0.0992 0.89297,-0.0496 0.5457,0.0496 0.99219,0.0992 0.44648,0 0.89297,-0.24805 z m 5.25859,3.77031 q -0.24805,0.44649 -0.39688,0.89297 -0.0992,0.39688 0.14883,0.64492 0.0992,-0.24804 0.14883,-0.69453 0.0496,-0.44648 0.0992,-0.84336 z m -13.19609,-14.53554 q -0.34727,-0.0992 -0.54571,0.0496 -0.14883,0.0992 -0.34726,-0.0496 -0.24805,0.29765 -0.54571,0.49609 -0.24804,0.19844 -0.69453,0.29766 -0.39687,0.44648 -0.79375,0.74414 -0.34726,0.29765 -0.24804,0.69453 -0.69454,0.34726 -0.54571,0.5457 -0.0496,0.44649 0.14883,0.24805 0.19844,-0.24805 0.44648,-0.39688 0.39688,-0.19843 0.69454,-0.39687 0.29765,-0.19844 0.29765,-0.39688 0.54571,-0.39687 1.0418,-0.89296 0.5457,-0.4961 1.09141,-0.94258 z m -0.89297,2.28203 q -0.74414,0.0496 -1.24024,0.39687 -0.44648,0.29766 -1.04179,0.54571 -0.79375,0.44648 -0.54571,0.64492 0.24805,0.19844 0.24805,0.5457 -0.24805,0.24805 -0.29766,0.29766 -0.0496,0.0496 -0.14883,0.0992 -0.29765,0.0992 -0.29765,0 0,-0.0992 -0.24805,0 -0.49609,0.14882 -0.49609,0.34726 0,0.19844 0.0496,0.44649 0.0496,0.19843 0.0992,0.39687 -0.24805,0.0992 -0.39688,0.39688 -0.0992,0.24804 -0.49609,0.24804 -0.0496,0.24805 -0.14883,0.54571 -0.0496,0.29765 -0.14883,0.5457 0.0496,0.39687 -0.0992,0.59531 -0.14883,0.19844 -0.0992,0.59531 0.14883,0.29766 0.0992,0.59532 0,0.24804 0.0992,0.39687 0.34727,-0.24804 0.64492,-0.19844 0.34727,0.0496 0.59532,-0.24804 0.19843,-0.39688 0.0992,-0.44649 -0.0992,-0.0496 -0.0496,-0.19843 0.24805,-0.19844 0.54571,-0.34727 0.29765,-0.14883 0.5457,-0.34727 0.29766,0 0.44649,-0.0992 0.14882,-0.14883 0.39687,-0.14883 0.19844,0.0496 0.34727,0 0.14882,-0.0992 0.24804,-0.19844 0.39688,-0.34727 0.4961,-0.29766 0.0992,0 0.0992,-0.0992 -0.19844,-0.24805 -0.14883,-0.59532 0.0992,-0.34726 -0.14883,-0.69453 0.39687,-0.0992 0.49609,-0.5457 0.14883,-0.4961 -0.19843,-0.79375 -0.24805,0.0496 -0.39688,0.24805 -0.14883,0.14882 -0.39687,0.24804 0.49609,-0.69453 0.99218,-0.5457 -0.0992,-0.49609 -0.34726,-0.5457 -0.39688,0.34726 -0.94258,0.69453 0.19844,-0.34727 0.14883,-0.39688 -0.0496,-0.0496 -0.0496,-0.14883 0.44648,-0.0992 0.49609,-0.14882 0.0992,-0.0992 0.19844,-0.19844 0.49609,0.0992 0.5457,-0.24805 0.0992,-0.39687 0.19844,-0.59531 -0.39688,-0.0496 -0.5457,0.24805 -0.14883,0.29765 -0.54571,0.14882 -0.19843,0.39688 -0.49609,0.64493 -0.29766,0.19843 -0.69453,0.0496 0.14883,-0.24805 0.24805,-0.39688 0.14882,-0.14883 0.44648,-0.0496 0,-0.24805 0.0992,-0.39687 0.0992,-0.14883 0.39687,-0.0992 0,-0.29766 0.14883,-0.24805 0.14883,0 0.34727,-0.0992 0.39687,-0.19844 0.49609,-0.29765 0.0992,-0.14883 0.34727,-0.24805 z m -0.79375,11.1125 q -0.19844,-0.44649 0,-0.69453 -0.0992,-0.74414 -0.14883,-0.94258 0,-0.19844 -0.0992,-0.39688 -0.14883,-0.0496 -0.24805,0.0496 -0.0496,0.0992 -0.29765,0.0496 -0.14883,-0.44648 -0.29766,-0.5457 -0.0992,-0.0992 -0.14883,-0.19844 0.4961,-0.19844 0.69453,-0.34726 0.19844,-0.14883 0.39688,-0.34727 -0.0992,-0.5457 -0.0496,-0.89297 0.0496,-0.39687 0,-0.89297 -0.29766,0.14883 -0.5457,0.0496 -0.19844,-0.14883 -0.19844,-0.0496 0.0496,0.24805 -0.34727,0.19844 -0.39687,-0.0992 -0.5457,0.0496 0.49609,0.0992 0.59531,0.14883 0.0992,0 0.14883,0.0992 -0.24805,0.0992 -0.44648,0.24804 -0.14883,0.14883 -0.34727,0.24805 0.34727,0.19844 0.69453,0.0992 0.39688,-0.0992 0.64492,0.0992 -0.24804,0.44648 -0.59531,0.64492 -0.34726,0.14883 -0.64492,0.29766 0,-0.4961 0.14883,-0.44649 0.14883,0.0496 0.19843,-0.0496 -0.19843,0 -0.39687,0 -0.14883,-0.0496 -0.39688,-0.0992 -0.0992,0.0992 -0.19843,0.24805 -0.0992,0.14883 0.0992,0.29766 -0.39688,0.19843 -0.64493,0.24804 -0.19843,0 -0.44648,0.0992 0.14883,0.14883 0.24805,0.0496 0.14882,-0.14883 0.29765,0.0992 0.14883,0.39688 0.0496,0.49609 -0.0496,0.0496 -0.14883,0.0992 -0.29765,0.0992 -0.84336,-0.19843 -0.39687,0.0992 -0.59531,0.0992 -0.14883,0 -0.19844,-0.0992 0.24805,-0.19844 0.39688,-0.24805 0.14883,-0.0496 0.49609,0.0496 -0.0496,-0.24805 -0.14882,-0.29766 -0.0496,-0.0496 -0.0496,-0.24804 0.5457,-0.29766 0.5457,-0.19844 0,0.0992 0.0992,0.0992 0.24804,-0.0496 0.69453,-0.0496 -0.0992,-0.29766 0.0496,-0.39688 0.19844,-0.0992 0.19844,-0.39687 -0.4961,0.39687 -0.4961,0.19843 0,-0.19843 -0.24804,-0.0992 0,0.24804 -0.14883,0.34726 -0.14883,0.0496 -0.34727,0 -0.64492,0.0496 -0.74414,0.39688 -0.34726,0.49609 -0.44648,0.69453 -0.0496,0.14883 -0.19844,0.24804 0.34726,0.19844 0.29766,0.24805 -0.0496,0.0496 -0.0496,0.24805 0.19843,-0.14883 0.49609,-0.14883 0.29766,-0.0496 0.39687,0.0496 -0.29765,0.59531 -0.39687,0.5457 -0.0496,-0.0496 -0.14883,-0.0496 -0.14883,0.54571 0.34727,0.79375 -0.19844,0.24805 -0.39688,0.44649 -0.19844,0.14883 -0.29765,0.5457 0.19843,0.39688 0.19843,0.59531 0.0496,0.14883 0.0992,0.29766 0.0496,0.14883 0.0992,0.19844 0.0496,0.0496 0.24805,-0.0992 0,0.39687 -0.14883,0.5457 -0.0992,0.0992 0,0.5457 0.5457,0.14883 0.74414,0.24805 0,0.39688 -0.19844,0.39688 -0.19843,-0.0496 -0.14883,0.19843 0.39688,0 0.59532,-0.34726 0.49609,-0.39688 0.44648,-0.4961 -0.0496,-0.14882 0,-0.19843 0.39688,0.0496 0.74414,0.0496 -0.0992,-0.24805 -0.44648,-0.24805 -0.29766,0 -0.59531,-0.14883 0.19843,-0.19844 0.44648,-0.24805 0.29766,-0.0992 0.64492,-0.19843 0.0496,-0.29766 0.14883,-0.44649 0.0992,-0.19843 0.29766,-0.0992 -0.14883,0.44649 -0.0496,0.54571 0.14882,0.0496 0.29765,0.14883 l -0.24804,-0.59532 q 0.44648,-0.5457 0.84336,-0.74414 0.44648,-0.19844 0.69453,-0.49609 z m 0.19843,2.77812 q -0.24804,0.14883 -0.39687,0 -0.0992,-0.19843 -0.34727,-0.0992 -0.24804,0.29766 -0.39687,0.39688 -0.19844,0.5457 -0.39688,0.44648 -0.5457,0.14883 -0.64492,0.24805 0.19844,0.0496 0.19844,0.29766 0,0.19843 0.34726,0.0992 0.39688,0.0992 0.34727,0 -0.0496,-0.14883 0.19844,-0.0992 -0.0496,-0.14883 0.0992,-0.39688 0.19843,-0.29765 0.79375,-0.19844 0,-0.29765 0.0496,-0.44648 0.0496,-0.14883 0.14882,-0.24805 z m -2.62929,0.34727 q -0.24805,0.0496 -0.34727,-0.0992 -0.0496,-0.14883 -0.29765,0 0.0992,0.0992 0.29765,0.14883 0.19844,0 0.29766,0.0992 z m 6.79648,6.79648 q -0.0992,-0.34726 -0.49609,-0.39687 -0.34727,-0.0496 -0.44649,-0.44649 -0.34726,-0.0992 -0.5457,-0.44648 -0.14883,-0.34727 -0.5457,-0.29766 -0.0496,-0.39687 -0.29766,-0.44648 -0.19844,-0.0496 -0.44648,-0.14883 0.24804,-0.19844 0.0496,-0.64492 -0.14883,-0.49609 -0.34727,-0.69453 -0.39687,-0.19844 -0.39687,-0.29766 0,-0.0992 0.0992,-0.34726 -0.19843,-0.0992 -0.34726,-0.14883 -0.0992,-0.0992 -0.0992,-0.34727 0.24805,-0.0992 0.24805,-0.39687 0,-0.29766 -0.24805,-0.44649 -0.0992,0.0992 -0.29766,0 -0.14882,-0.14883 -0.19843,-0.24804 -0.19844,-0.34727 -0.39688,-0.19844 -0.19844,0.14883 -0.39687,0.34726 -0.14883,0.14883 -0.34727,0.34727 -0.14883,0.14883 -0.49609,0.14883 -0.14883,0.14883 -0.24805,-0.0496 -0.0992,-0.24805 -0.19844,-0.34727 -0.44648,-0.49609 -0.59531,-0.44648 -0.0992,0.0496 -0.34727,0 0.0992,0.19844 0.24805,0.24805 0.19844,0.0496 0.34727,-0.0992 0.14882,0.24804 0.24804,0.5457 0.14883,0.29766 0.0496,0.64492 -0.5457,0.29766 -0.69453,0.69453 0.4961,0.0992 0.79375,0.0496 0.34727,-0.0992 0.4961,-0.24804 0.19843,0.44648 0.24804,0.39687 0.0496,-0.0496 0.14883,0.0496 0,-0.14883 0.14883,-0.19844 0.19844,-0.0992 0.39687,0 0.0992,-0.34726 0.39688,-0.44648 0.29765,-0.14883 0.49609,-0.34727 -0.29765,0.69453 -0.84336,1.09141 -0.49609,0.34726 -1.04179,0.64492 0.14882,0.5457 0.34726,0.79375 0.24805,0.19844 0.64492,0.34727 -0.0496,-0.29766 0.0992,-0.44649 0.14883,-0.14883 -0.0496,-0.19844 0.39688,0 0.34727,0.4961 -0.0496,0.39687 0.14883,0.64492 0.24804,0.19844 0.49609,0.39687 0.29766,0.14883 0.5457,0.24805 0.24805,0.0496 0.54571,-0.0992 l 0.59531,-0.0496 0.69453,0.19844 q 0.39688,0.49609 0.74414,0.5457 0.34727,0.0496 0.74414,0.0496 z m -6.8957,-6.39961 q -0.0496,-0.24804 -0.29766,-0.19843 -0.19844,0.0496 -0.24804,0.19843 0.0992,0.0992 0.19843,0.0496 0.14883,-0.0496 0.34727,-0.0496 z m 13.39453,-14.53554 q -0.0992,0.19843 -0.29766,0.24804 -0.19843,0.0496 -0.19843,0.44649 -0.24805,-0.19844 -0.0992,-0.4961 0.19843,-0.29765 0.59531,-0.19843 z m -11.80703,2.77812 q -0.19844,0.34727 -0.59531,0.29766 0.0992,-0.14883 0.29765,-0.14883 0.19844,-0.0496 0.29766,-0.14883 z m -0.44649,-0.0992 q -0.0992,0 -0.24804,0.0992 -0.14883,0.0992 -0.29766,0.19844 -0.0992,0.0496 -0.24805,0.0496 -0.0992,0 -0.0992,-0.19844 0.49609,-0.0496 0.89296,-0.14883 z m 1.0418,1.5875 q -0.0992,0.0496 -0.24805,0.0992 -0.14882,0.0496 -0.29765,-0.0496 0,-0.19843 0.14883,-0.19843 0.19843,0 0.24804,-0.19844 z m -1.48828,-0.74414 q -0.24805,0.0496 -0.49609,0.24805 0.0496,-0.19844 0.19843,-0.14883 0.19844,0 0.29766,-0.0992 z m 0.84336,0.84336 q -0.0496,0.29766 -0.44649,0.39688 0.0992,-0.0992 0.0992,-0.29766 0.0496,-0.19844 0.34727,-0.0992 z m -0.5457,0.54571 q -0.0496,0.0992 -0.19844,0.14882 -0.0992,0 -0.19844,0.0496 -0.0992,0 -0.14883,0.0496 -0.0496,0.0496 0.0496,0.19844 0.0496,-0.39688 0.14883,-0.44648 0.0992,-0.0496 0.34727,0 z m 0.49609,4.01835 q -0.19844,0.14883 -0.34727,0 -0.0992,-0.14882 -0.19843,-0.24804 0.29765,-0.0992 0.34726,0.0496 0.0992,0.0992 0.19844,0.19843 z m -0.64492,0.0496 q -0.29766,0.14883 -0.4961,0.0496 -0.14882,-0.0992 -0.34726,-0.0496 0.34726,-0.24804 0.39687,-0.29765 0.0992,-0.0992 0.29766,-0.0992 z m -0.54571,1.0418 q -0.29765,0.34727 -0.44648,0.34727 -0.0992,-0.0496 -0.0992,0.0496 -0.64492,-0.14883 -0.84336,0 -0.14883,0.0992 -0.39687,0.14882 0,-0.19843 0.19843,-0.24804 0.19844,-0.0496 0.0992,-0.29766 0.14883,0.19844 0.34727,0.14883 0.24805,-0.0992 0.39687,-0.19844 0.34727,0.19844 0.74414,0.0496 z m 2.48047,5.8043 q -0.59531,0.29765 -0.59531,0.14883 0,-0.14883 -0.14883,-0.14883 0.34727,-0.24805 0.44649,-0.24805 0.0992,-0.0496 0.29765,-0.0496 z m 0.74414,1.73633 q -0.24804,-0.0992 -0.34726,0 -0.0992,0.0992 -0.19844,0.0496 0.24805,-0.0496 0.5457,-0.0496 z m -3.91914,-4.11758 q -0.14882,0.19844 -0.49609,0.29765 -0.0992,-0.19843 0.0496,-0.24804 0.19844,-0.0992 0.44648,-0.0496 z m 2.57969,2.77812 q -0.0992,0.0992 -0.29766,0.19844 -0.19843,0.0992 -0.24804,0.29766 -0.4961,0.24804 -0.4961,0.14882 0,-0.14882 -0.0992,-0.24804 0.39687,-0.19844 0.44648,-0.44649 0.24805,-0.0496 0.34727,0 0.0992,0 0.34726,0.0496 z m 1.19063,2.67891 q -0.0992,0.0992 -0.24805,0.24805 -0.14883,0.0992 -0.29766,0 0.0992,-0.0992 0.24805,-0.19844 0.19844,-0.0992 0.29766,-0.0496 z m 38.87721,1.68672 q -0.39688,0.19844 -0.79375,0.19844 -0.34727,0 -0.74415,-0.0496 -0.34726,-0.0992 -0.74414,-0.14883 -0.34726,-0.0992 -0.69453,-0.0992 -0.39687,0.0496 -0.84336,0.14883 -0.39687,0.0496 -0.79375,0.0992 -0.74414,-0.0992 -1.19062,-0.0496 -0.39688,0 -0.84336,0.0496 -0.39688,0 -0.74414,0.0992 -0.34727,0.0496 -0.64492,0.24805 -0.24805,-0.39687 -0.79375,-0.29765 -0.4961,0.0496 -1.0418,0.0992 -0.39688,0 -0.79375,0.0496 -0.39688,0 -0.74414,0.0496 -0.24805,0 -0.49609,0.0496 -0.24805,0.0992 -0.44649,-0.0992 0.24805,-0.59531 0.64492,-0.59531 0.44649,0 0.84336,0 0.39688,0 0.69453,-0.0496 0.34727,-0.0992 0.39688,-0.44648 0,-0.0496 -0.14883,-0.34727 -0.0992,-0.29765 -0.29766,-0.59531 -0.14882,-0.29766 -0.34726,-0.44649 -0.19844,-0.19843 -0.39688,-0.0496 -0.0992,-0.19844 -0.29765,-0.24805 -0.19844,-0.0992 -0.29766,-0.34727 -0.0496,-0.94258 -0.49609,-1.24023 -0.44649,-0.34727 -0.59532,-1.0418 -0.39687,-0.49609 -0.49609,-0.59531 -0.0992,-0.14883 -0.0992,-0.39688 -0.39687,-0.19843 -0.69453,-0.44648 -0.29766,-0.29766 -0.34726,-0.84336 -0.19844,0 -0.29766,0.0992 -0.0992,0.0992 -0.24805,0 -0.29765,-0.59531 -0.19844,-0.69453 0.14883,-0.0992 0.24805,-0.29766 -0.0992,-0.24805 -0.24805,-0.44648 -0.0992,-0.19844 -0.24804,-0.34727 -0.54571,0.14883 -0.54571,0.84336 -0.34726,0.0496 -0.44648,0.29766 -0.0496,0.24804 -0.34727,0.34726 0,0.54571 -0.29765,0.79375 -0.29766,0.24805 -0.24805,0.64492 -0.49609,0.34727 -0.79375,0.89297 -0.24805,0.4961 -0.5457,1.0418 -0.4961,0.64492 -0.69453,0.84336 -0.14883,0.19844 -0.24805,0.44648 0.49609,0 0.24805,0.34727 -0.24805,0.34727 -0.24805,0.64492 0,0.39688 0.19844,0.59531 0.19844,0.19844 0.0992,0.59532 0.0992,0.14882 0.29765,0.14882 0.19844,-0.0496 0.29766,0.0992 0,0.39688 0.0992,0.59532 0.19844,0 0.34726,-0.0496 0.14883,-0.0496 0.29766,0.0496 0,0.24804 0.0992,0.34726 0.0992,0.0992 0.19844,0.34727 -0.54571,0.39687 -1.19063,0.19843 -0.59531,-0.19843 -1.24023,-0.0992 -0.64492,0.19843 -0.84336,0.0992 -0.19844,-0.0496 -0.39688,0.0496 0.0992,-0.19843 -0.0496,-0.29765 -0.14882,-0.0992 -0.39687,-0.14883 -0.24805,0 -0.4961,0.0496 -0.24804,0.0496 -0.29765,0.19844 -0.39688,-0.19844 -0.94258,-0.19844 -0.49609,0.0496 -1.19062,0.0992 -0.59532,0 -1.14102,0.14883 -0.5457,0.14882 -0.79375,-0.39688 0.44648,-0.39687 0.69453,-0.44648 0.24805,-0.0992 0.49609,-0.19844 0.24805,-0.34727 0.69454,-0.39688 0.49609,-0.0992 0.59531,-0.59531 0.74414,-0.24805 1.24023,-0.69453 0.54571,-0.49609 1.19063,-0.89297 1.14101,-1.28984 2.23242,-2.57969 1.14101,-1.28984 1.98437,-2.87734 0.24805,-0.0992 0.29766,-0.29766 0.0992,-0.19843 0.34727,-0.24804 0.14882,-0.34727 0.34726,-0.64492 0.19844,-0.34727 0.29766,-0.64493 0.0992,-0.29765 0.0992,-0.59531 0,-0.34726 -0.24805,-0.74414 -0.34727,-0.59531 -0.84336,-1.09141 -0.49609,-0.5457 -0.59531,-1.38906 -0.0992,-0.24805 -0.24805,-0.49609 -0.14883,-0.24805 -0.24805,-0.54571 -0.49609,0.24805 -0.59531,-0.34726 0.24805,-0.34727 0.19844,-0.44649 -0.0496,-0.0992 0,-0.24804 -0.29766,0 -0.44649,0.0992 -0.14882,0.0496 -0.39687,-0.0992 0.14883,-0.44649 -0.34727,-0.44649 0.0496,-0.39687 0.4961,-0.59531 -0.0496,-0.39687 -0.69453,-0.39687 -0.0496,-0.14883 -0.0992,-0.29766 -0.0496,-0.14883 -0.24805,-0.19844 -0.19844,-0.79375 -0.49609,-1.38906 -0.24805,-0.59531 -0.94258,-0.84336 -0.0992,-0.24805 -0.24805,-0.39687 -0.14883,-0.14883 -0.24804,-0.34727 0,-0.24805 0.0992,-0.24805 0.14883,-0.0496 0.14883,-0.29765 -0.39687,-0.0992 -0.5457,-0.39688 -0.14883,-0.29765 -0.34727,-0.5457 0.0992,-0.29766 -0.19843,-0.4961 -0.24805,-0.19843 -0.54571,-0.39687 -0.69453,0.0496 -1.48828,0.19844 -0.84336,0.0992 -1.38906,-0.34727 0.29766,-0.74414 0.19844,-0.79375 -0.14883,-0.0992 -0.0496,-0.19844 1.14101,-0.0496 2.38125,0 1.24023,0 2.23242,-0.0992 0.19844,0.0992 0.59531,0.14882 0.44649,0 0.94258,0 0.49609,0 0.94258,0 0.44648,-0.0496 0.74414,-0.14882 0.14883,-0.0496 0.29765,-0.14883 0.14883,-0.0992 0.34727,-0.0992 0.19844,-0.0496 0.39688,0 0.19843,0.0496 0.44648,0.0496 0.24805,-0.0496 0.5457,-0.0992 0.29766,-0.0992 0.54571,-0.14883 0.5457,0 1.19062,0.0992 0.64492,0.0496 1.33945,-0.14883 0.14883,0.24805 0.4961,0.39688 0.34726,0.0992 0.34726,0.29765 -0.0992,0.0992 -0.24804,0.24805 -0.14883,0.0992 -0.34727,0.19844 -0.19844,0.0992 -0.39687,0.0992 -0.14883,0 -0.29766,-0.19844 -0.84336,0.14883 -1.09141,0.39687 -0.24804,0.19844 -0.64492,0.14883 -0.24805,0.44649 -0.19844,0.89297 0.0496,0.44648 0.24805,0.89297 0.24805,0.44648 0.5457,0.84336 0.29766,0.39687 0.54571,0.64492 0.39687,0.84336 0.89297,1.53789 0.49609,0.64492 1.04179,1.33945 -0.0496,0.39688 0.14883,0.74414 0.19844,0.34727 0.44649,0.59532 0.34726,-0.29766 0.59531,-0.69453 0.29765,-0.39688 0.5457,-0.79375 0.24805,-0.44649 0.49609,-0.84336 0.24805,-0.39688 0.59532,-0.69453 0.14883,-0.39688 0.29765,-0.84336 0.19844,-0.44649 0.54571,-0.74414 -0.0992,-0.24805 0,-0.44649 0.14882,-0.19844 0.24804,-0.39687 -0.0992,-0.44649 0.0496,-0.74414 0.19844,-0.34727 0.0992,-0.74415 -0.0496,-0.34726 -0.29765,-0.5457 -0.24805,-0.19844 -0.54571,-0.34726 -0.29765,-0.14883 -0.59531,-0.29766 -0.24805,-0.19844 -0.29766,-0.59531 0.79375,-0.0992 1.73633,0.14883 0.99219,0.19843 1.98438,-0.14883 0.29765,0.0992 0.84336,0.14883 0.59531,0.0496 1.14101,0 0.39688,0 0.79375,-0.14883 0.39688,-0.19844 0.64492,-0.0992 0.24805,0.0496 0.39688,0.24805 0.14883,0.14882 0.39687,0.0992 -0.69453,0.64493 -1.33945,0.64493 -0.59531,0 -1.0418,0.14882 -0.49609,0.14883 -0.84336,0.4961 -0.29765,0.34726 -0.59531,0.74414 -0.24805,0.34726 -0.5457,0.74414 -0.24805,0.34726 -0.64492,0.59531 -0.0992,0.39688 -0.29766,0.69453 -0.19844,0.24805 -0.29766,0.69453 -0.44648,0.34727 -0.74414,0.79375 -0.29765,0.44649 -0.59531,0.94258 -0.14883,0.0496 -0.24805,0.14883 -0.0992,0.0992 -0.19843,0.19844 0.0496,0.24804 -0.14883,0.5457 -0.19844,0.29766 -0.4961,0.39688 0.19844,0.24804 -0.0992,0.34726 -0.24805,0.0496 -0.14883,0.29766 0.49609,0.0992 0.64492,0.5457 -0.0496,0.24805 -0.29766,0.24805 -0.19843,0 -0.14882,0.29765 -0.24805,-0.0992 -0.44649,0.0496 -0.19844,0.14883 -0.24805,0.39688 0.44649,-0.0992 0.74414,0.29765 0.29766,0.39688 -0.0992,0.79375 0.0992,0.34727 0.14882,0.69454 0.0992,0.34726 0.44649,0.44648 0.14883,0.44648 0.39687,0.84336 0.24805,0.39687 0.64493,0.64492 0.19843,0.64492 0.49609,1.24024 0.29766,0.5457 0.89297,0.79375 0.19844,0.44648 0.0992,0.44648 -0.0992,0 -0.0992,0.0992 0.24804,0.5457 0.49609,1.19062 0.24805,0.64493 0.69453,1.0418 0.0992,0.44649 0.19844,0.49609 0.14883,0.0496 0.24805,0.14883 0.64492,0 0.64492,0.29766 0,0.24805 -0.24805,0.39687 0.0992,0.39688 0.19844,0.64493 0.14883,0.19843 0.5457,0.39687 -0.0496,0.34727 0.19844,0.64492 0.29766,0.29766 0.39688,0.64492 0.49609,0.0992 1.0914,0.0496 0.59531,-0.0496 0.89297,0.24805 -0.34727,0.0992 -0.39687,0 -0.0496,-0.0992 -0.14883,-0.0992 -0.29766,0.39688 -0.0992,0.64492 0.19844,0.24805 0.59531,0.39688 0.44649,0.0992 0.94258,0.0992 0.49609,-0.0496 0.84336,-0.19844 0.0992,0.24805 0.19844,0.49609 0.14882,0.24805 0.0496,0.4961 z m -5.95313,-23.66367 q -0.5457,-0.0496 -1.14102,0.19843 0.0496,0.24805 -0.0496,0.34727 -0.0496,0.0992 -0.0992,0.24805 0.19843,0.19843 0.34726,0.0992 0.19844,-0.14882 0.34727,-0.24804 0.19844,-0.14883 0.34726,-0.24805 0.19844,-0.14883 0.24805,-0.39687 z m -1.19062,1.43867 q -0.29766,-0.0496 -0.54571,-0.19844 -0.0992,0.29766 -0.19844,0.59531 -0.0496,0.29766 0.0496,0.54571 0.19844,-0.19844 0.39688,-0.39688 0.19844,-0.24805 0.29766,-0.5457 z m -8.33438,2.23242 q -0.0496,-0.24805 -0.39687,-0.19844 -0.29766,0.0496 -0.24805,0.29766 0.44648,0 0.59531,0 0.14883,0 0.0496,-0.0992 z m -0.69453,-3.86953 q -0.29766,0.0496 -0.64492,0.0992 -0.29766,0 -0.54571,0.0992 -0.29765,0.39687 -0.44648,0.69453 -0.0992,0.24804 -0.5457,0.19843 -0.34727,0.34727 -0.4961,0.34727 -0.39687,0.44648 -0.99218,0.69453 -0.59532,0.19844 -0.84336,0.74414 0.29765,0 0.39687,-0.0992 0.0992,-0.0992 0.19844,-0.19843 0.14883,0.0992 0.24805,0.0496 0.14882,-0.0992 0.39687,-0.0992 0.74414,-0.4961 1.24023,-0.84336 0.4961,-0.39688 1.19063,-0.64492 0.14883,-0.29766 0.39687,-0.4961 0.24805,-0.24805 0.44649,-0.5457 z m -0.24805,3.86953 q -0.0992,-0.29766 -0.34726,-0.14883 -0.19844,0.0992 -0.34727,0.0496 0,0.19844 0.29766,0.19844 0.29765,-0.0496 0.39687,-0.0992 z m 0.24805,-1.33945 h -0.59531 q -0.0992,0.34726 -0.44649,0.44648 -0.34726,0.0496 -0.74414,0.14883 -0.0496,0.39687 -0.29765,0.44648 -0.19844,0 -0.29766,0.29766 0.39687,-0.14883 0.5457,-0.0992 0.14883,0.0496 0.34727,0.0496 0.49609,-0.29766 0.39687,-0.34727 -0.0496,-0.0496 -0.0992,-0.19843 l 0.54571,0.0992 q 0.0496,-0.44649 0.24804,-0.4961 0.19844,-0.0496 0.39688,-0.34726 z m -2.6293,-2.03399 q -0.14883,-0.24804 -0.39687,-0.0496 -0.19844,0.14883 -0.54571,0.0992 -0.19843,0.34727 -0.69453,0.44649 -0.49609,0.0992 -0.84336,0.39687 0.89297,0.14883 1.09141,-0.19844 0.34727,-0.0992 0.49609,-0.19843 0.14883,-0.0992 0.29766,-0.14883 0.19844,-0.0496 0.34727,-0.0992 0.19843,-0.0496 0.24804,-0.24805 z m -2.72851,0 q -0.24805,-0.0992 -0.54571,-0.19844 -0.29765,-0.0992 -0.44648,0.14883 0.24805,-0.0496 0.5457,0.14883 0.29766,0.14883 0.44649,-0.0992 z m 8.92968,7.88789 q -0.24804,-0.0992 -0.29765,-0.39687 -0.0496,-0.34727 -0.44649,-0.34727 -0.29765,0.19844 -0.39687,0.14883 -0.0992,-0.0992 -0.19844,0.0992 -0.0992,0.14883 -0.34726,0.34726 -0.19844,0.14883 -0.4961,0.14883 -0.0992,0.44649 -0.19844,0.4961 -0.0496,0 -0.29765,0 -0.0496,0.34726 -0.0992,0.39687 -0.0496,0.0496 -0.14883,0.0992 -0.0496,0.0496 -0.14883,0.0992 -0.0992,0.0496 -0.0496,0.19844 0.0992,0 0.34727,0 0.24805,-0.0496 0.44648,0.0496 0.54571,-0.19844 0.84336,-0.29766 0.34727,-0.0992 0.64492,-0.19844 0.34727,-0.14883 0.59532,-0.34726 0.24804,-0.19844 0.24804,-0.4961 z m -1.04179,-1.04179 q -0.44649,-0.34727 -0.64492,-0.0992 -0.19844,0.19843 -0.54571,-0.0496 0.39688,-0.14883 0.64492,-0.24805 0.29766,-0.0992 0.44649,-0.49609 -0.24805,-0.44649 -0.5457,-0.84336 -0.29766,-0.39688 -0.54571,-0.79375 -0.24804,0 -0.39687,0.0992 -0.14883,0.0496 -0.29766,0.14882 -0.0992,0.0992 -0.24805,0.19844 -0.0992,0.0992 -0.34726,0.0992 l -0.34727,0.59531 q -0.19843,-0.0992 -0.39687,0.0992 -0.14883,0.19844 -0.29766,0.34727 -0.44648,-0.14883 -0.49609,0.0496 -0.0496,0.14883 -0.0496,0.29765 0.19844,0.19844 0.49609,0.14883 0.29766,-0.0992 0.54571,-0.19844 0,-0.24804 0.0992,-0.34726 0.0992,-0.14883 0.0992,-0.34727 0.29766,0 0.39688,0.39688 0,-0.14883 0.0992,-0.4961 0.0992,-0.34726 0.34726,-0.0992 0.24805,-0.0992 0.34727,-0.24805 0.0992,-0.19844 0.49609,-0.0992 0.0992,0.5457 -0.0496,0.69453 -0.14883,0.0992 0.0496,0.29766 -0.0992,0.0992 -0.29765,0.14883 -0.14883,0.0496 -0.29766,0.14882 -0.0992,0.0992 -0.14883,0.24805 -0.0496,0.0992 0.0496,0.24805 -0.19844,-0.24805 -0.49609,-0.14883 -0.24805,0.0496 -0.39688,0.0992 -0.0496,0.14883 -0.19844,0.39687 -0.14882,0.19844 -0.24804,0.34727 0,0.29765 -0.0992,0.59531 -0.0992,0.29766 -0.34727,0.49609 0.4961,0.34727 0.64492,0.39688 0.14883,0.0496 0.29766,0.0496 0.0992,-0.5457 0.14883,-0.69453 0.0992,-0.14883 0.34726,-0.0992 0.4961,-0.74414 1.28985,-0.94258 0.0496,-0.19844 0.0992,-0.29766 0.0496,-0.0992 0.29765,-0.0992 z m -3.47266,-1.63711 q -0.24805,-0.24805 -0.34726,-0.29766 -0.0496,-0.0992 -0.24805,-0.0496 -0.24805,0.29766 -0.39688,0.34727 -0.0992,0.0496 0.0496,0.14882 0.0992,-0.19843 0.39688,-0.0992 0.29765,0.0992 0.39687,-0.19844 z m -1.68672,-0.74414 q -0.19844,0 -0.39687,0.0992 -0.19844,0.0496 -0.14883,0.29766 0.24805,-0.0496 0.29766,-0.14883 0.0992,-0.14883 0.24804,-0.24804 z m 7.78867,6.49882 q -0.39687,-0.34726 -0.69453,-0.19843 -0.29765,0.14882 -0.59531,0.34726 -0.29766,0.19844 -0.59531,0.44649 -0.29766,0.19843 -0.64492,0.24804 0.24804,0.14883 0.39687,0.0992 0.19844,-0.0496 0.44649,-0.0992 0.24804,-0.44648 0.69453,-0.49609 0.49609,-0.0992 0.99218,-0.34727 z m -6.00273,-3.22461 -0.44648,-0.34726 q 0.0992,0.34726 0.44648,0.34726 z m 8.68164,7.09415 q -0.19844,-0.29766 -0.44648,-0.54571 -0.24805,-0.29765 -0.4961,-0.5457 -0.0992,-0.59531 -0.44648,-0.84336 -0.34727,-0.29766 -0.44649,-0.89297 -0.39687,-0.0992 -0.74414,0.14883 -0.34726,0.24805 -0.64492,0.49609 0.64492,-0.34726 1.09141,-0.14883 0.44648,0.19844 0.39687,0.54571 -0.24804,0.14883 -0.44648,0.34726 -0.19844,0.14883 -0.44649,0.24805 -0.5457,0.19844 -0.79375,0.44648 -0.19843,0.19844 -0.49609,0.39688 -0.24805,0 -0.39688,0.0992 -0.14882,0.0496 -0.14882,0.24805 0.39687,-0.0496 0.64492,-0.19844 0.29765,-0.19844 0.59531,-0.29766 0.79375,0.29766 0.99219,0.4961 -0.14883,-0.59532 0,-0.59532 0.24805,-0.0496 0.5457,-0.0496 0.34727,-0.0496 0.44649,0.34727 -0.0992,0.0992 -0.24805,0.19844 -0.0992,0.0992 0,0.34726 -0.39688,0.14883 -0.64492,0.44649 -0.19844,0.24804 -0.59532,0.34726 0.0992,0.24805 0,0.34727 -0.0992,0.0496 -0.19843,0.24804 0.5457,0.0496 0.74414,-0.14882 0.19844,-0.24805 0.39687,-0.0992 0.29766,-0.44649 0.54571,-0.34727 0.5457,-0.5457 0.79375,-0.64492 0.29765,-0.0992 0.44648,-0.39687 z m -6.05234,-5.06016 q -0.54571,0.34726 -0.79375,0.44648 -0.19844,0.0496 -0.39688,0.14883 -0.19844,0.0992 -0.39687,0.24805 -0.14883,0.0992 -0.14883,0.34726 0.29765,0.4961 0.79375,1.14102 0.24805,-0.0992 0.39687,-0.29766 0.14883,-0.19843 0.24805,-0.39687 -0.59531,-0.19844 -0.34727,-0.89297 0.24805,-0.0496 0.4961,-0.34727 0.24805,-0.29765 0.14883,-0.39687 z m 10.86445,12.55117 q -0.29766,-0.24805 -0.59531,-0.0992 -0.24805,0.14883 -0.4961,-0.0992 -0.34726,0.0496 -0.5457,0.24805 -0.19844,0.14883 -0.39687,0.24805 0.39687,0.0992 0.99218,0.0496 0.64492,-0.0496 1.0418,-0.34727 z m -10.12031,-9.22734 q -0.34727,-0.19844 -0.4961,0 -0.14882,0.14883 -0.0992,0.34726 0.24805,-0.0496 0.29766,-0.14883 0.0992,-0.0992 0.24805,-0.19843 z m 9.17773,8.23515 q -0.49609,-0.19843 -0.44648,-0.19843 0.0496,-0.0496 -0.0496,-0.14883 -0.24805,0.0496 -0.44649,0.19844 -0.14882,0.0992 -0.29765,0.24804 -0.14883,0.0992 -0.34727,0.19844 -0.14883,0.0992 -0.39687,0.0496 0.0992,0.24805 -0.0496,0.39687 -0.0992,0.14883 -0.24805,0.24805 0.89297,-0.19844 1.24023,-0.29766 0.34727,-0.14882 0.74415,-0.19843 0.0496,-0.14883 0.0992,-0.29766 0.0496,-0.14883 0.19844,-0.19844 z m -1.14101,-1.68672 q -0.29766,-0.24804 -0.54571,0 -0.24804,0.24805 -0.59531,0.24805 -0.24805,0.29766 -0.29766,0.39688 -0.0496,0.0496 -0.24804,-0.0496 -0.54571,0.0496 -0.4961,0.14883 0.0496,0.0992 0.0496,0.34726 -0.14883,0.19844 -0.44648,0.24805 -0.24805,0.0496 -0.34727,0.19844 0.0992,0.19843 0.24805,0.0496 0.19844,-0.19843 0.44648,-0.0992 0.4961,-0.4961 0.79375,-0.64493 0.34727,-0.19843 0.59532,-0.0992 0.14882,-0.34727 0.79375,-0.24805 z m -1.0418,-1.24023 q -0.0496,-0.19844 -0.24805,-0.24805 -0.14883,-0.0992 0.0992,-0.29765 -0.34726,-0.0496 -0.44648,-0.39688 -0.34727,0.24805 -0.44649,0.34727 -0.0992,0.0992 -0.29765,0.14883 -0.14883,0 -0.29766,0.0496 -0.14883,0 -0.19844,0.14882 -0.44648,0.59532 -1.33945,0.99219 0.0496,0.24805 -0.24805,0.39688 -0.24804,0.14882 -0.29765,0.39687 0.64492,0.14883 0.99218,-0.0992 0.34727,-0.24804 0.94258,-0.19844 -0.34726,0.39688 -0.5457,0.54571 -0.14883,0.0992 -0.5457,0.0496 -0.0496,0.24804 -0.24805,0.24804 -0.14883,-0.0496 -0.24805,0.19844 0.24805,0.0992 0.39688,0.44649 0.14882,0.29765 0.39687,0.24804 0.29766,-0.34726 0.34727,-0.49609 0.0496,-0.19844 0.14883,-0.39688 0.39687,0.0496 0.5457,-0.19843 0.14883,-0.24805 0.5457,-0.29766 0.24805,-0.49609 0.4961,-0.49609 0.24804,0 0.34726,-0.19844 -0.14883,-0.0992 -0.34726,-0.19844 -0.14883,-0.0992 -0.34727,0.0496 0.0496,0.39688 -0.39688,0.39688 -0.44648,0 -0.69453,-0.0992 0.29766,-0.19844 0.69453,-0.24805 0.39688,-0.0992 0.59532,-0.44648 0.29765,0.0496 0.39687,-0.0496 0.14883,-0.0992 0.24805,-0.29766 z m -3.52227,-1.83555 q -0.19843,-0.14882 -0.34726,0 -0.0992,0.14883 -0.19844,0.24805 -0.19844,0.19844 -0.5457,0.0992 -0.0992,0.29766 -0.39688,0.39687 -0.24804,0.0992 -0.14883,0.34727 0.59532,-0.19844 0.69454,-0.24805 0.0992,-0.0496 0.14882,-0.14883 0.0992,-0.0992 0.14883,-0.14882 0.0992,-0.0992 0.24805,-0.0496 0.0496,-0.19844 0.14883,-0.24805 0.14882,-0.0992 0.24804,-0.24805 z m 1.83555,0.84336 q -0.19844,-0.0992 -0.34727,-0.0496 -0.14882,0 -0.29765,-0.19843 -0.39688,0.29765 -0.64492,0.44648 -0.19844,0.14883 -0.4961,0.0496 -0.19843,0.34727 -0.34726,0.44648 -0.0992,0.0992 -0.24805,0 0.0496,0.19844 -0.0496,0.29766 -0.0992,0.0496 -0.24805,0.0992 -0.14882,0.0496 -0.29765,0.14883 -0.14883,0.0496 -0.19844,0.24804 0.24805,0.0992 0.34727,0.29766 0.0992,0.14883 0.19843,0.39688 0.24805,0 0.29766,-0.19844 0.0496,-0.19844 0.19844,-0.29766 0.24804,-0.24805 0.49609,-0.39687 0.24805,-0.19844 0.64492,-0.0496 0.0992,-0.44649 0.39688,-0.69453 0.34726,-0.24805 0.59531,-0.54571 z m -3.07578,-1.5875 q -0.49609,-0.0992 -0.84336,0.14883 -0.34727,0.24805 -0.84336,0.34727 0.0496,0.39687 0.44648,0.59531 0.59532,-0.34727 0.64493,-0.5457 0.0992,-0.19844 0.24804,-0.29766 z m -1.43867,-0.49609 q 0,-0.19844 -0.0992,-0.24805 -0.0992,-0.0496 -0.24805,0 -0.14883,0 -0.29765,0.0496 -0.14883,0 -0.24805,-0.0992 0,0.24805 0.19844,0.29766 0.19843,0 0.29765,0.19844 z m 5.55625,6.59805 q -0.44649,-0.24805 -0.79375,0 -0.34727,0.24804 -0.89297,0.34726 0.0992,0.39688 0.19844,0.69453 0.24804,0 0.34726,-0.19843 0.0992,-0.24805 0.34727,-0.0992 0.19843,-0.19844 0.34726,-0.4961 0.14883,-0.29765 0.44649,-0.24804 z m -13.44414,0.39687 q -0.19844,0.0992 -0.44649,0.19844 -0.24804,0.0992 -0.49609,0.19844 0.5457,0.0992 0.79375,0.0992 z m 5.60586,-15.57734 q -0.54571,0.44648 -0.59532,0.39687 0.14883,-0.0992 0.29766,-0.14883 0.19844,-0.0992 0.29766,-0.24804 z"
         id="path3" />
    </g>
  </g>
</svg>
