<?xml version="1.0" encoding="UTF-8" standalone="no"?>
<svg
   width="183.00278mm"
   height="48.920399mm"
   viewBox="0 0 183.00278 48.920399"
   version="1.1"
   id="svg1"
   xml:space="preserve"
   xmlns="http://www.w3.org/2000/svg"
   xmlns:svg="http://www.w3.org/2000/svg"><defs
     id="defs1" /><g
     id="layer1"
     transform="translate(-13.757511,-183.26514)"><g
       id="text2"
       style="font-size:50.8px;font-family:'VL PGothic';-inkscape-font-specification:'VL PGothic';text-align:center;letter-spacing:-2.64583px;text-anchor:middle;fill:#822639;stroke-width:0.264583"
       aria-label="QualiTex"><path
         style="font-weight:500;font-family:'Ubuntu Nerd Font';-inkscape-font-specification:'Ubuntu Nerd Font Medium';fill:#081968"
         d="m 20.412311,205.05833 q 0,2.8956 0.7112,5.2832 0.7112,2.3368 2.032,4.0132 1.3716,1.6256 3.302,2.54 1.9304,0.9144 4.3688,0.9144 2.3876,0 4.318,-0.9144 1.9304,-0.9144 3.2512,-2.54 1.3716,-1.6764 2.0828,-4.0132 0.7112,-2.3876 0.7112,-5.2832 0,-2.8956 -0.7112,-5.2324 -0.7112,-2.3876 -2.0828,-4.0132 -1.3208,-1.6764 -3.2512,-2.5908 -1.9304,-0.9144 -4.318,-0.9144 -2.4384,0 -4.3688,0.9144 -1.9304,0.9144 -3.302,2.5908 -1.3208,1.6764 -2.032,4.0132 -0.7112,2.3368 -0.7112,5.2324 z m 27.4828,0 q 0,3.81 -0.9652,6.858 -0.9652,3.048 -2.6924,5.334 -1.7272,2.2352 -4.064,3.6576 -2.286,1.4224 -5.0292,2.032 0.1524,1.0668 1.0668,1.8288 0.9144,0.762 2.286,1.27 1.4224,0.508 3.2004,0.8128 1.8288,0.3556 3.81,0.508 l -1.4224,4.826 q -6.5532,-0.508 -10.414,-2.54 -3.8608,-1.9812 -4.9276,-6.35 -3.1496,-0.3048 -5.8928,-1.6256 -2.6924,-1.3208 -4.7244,-3.6068 -2.032,-2.286 -3.2004,-5.5372 -1.1684,-3.2512 -1.1684,-7.4676 0,-4.5212 1.3716,-7.9248 1.3716,-3.4544 3.7084,-5.7912 2.3876,-2.3368 5.4864,-3.5052 3.0988,-1.1684 6.5532,-1.1684 3.4544,0 6.5532,1.1684 3.0988,1.1684 5.3848,3.5052 2.3368,2.3368 3.7084,5.7912 1.3716,3.4036 1.3716,7.9248 z m 25.85295,16.8148 q -1.778,0.4572 -4.6228,0.9144 -2.8448,0.508 -6.2484,0.508 -3.2004,0 -5.3848,-0.9144 -2.1336,-0.9144 -3.4544,-2.54 -1.27,-1.6256 -1.8288,-3.8608 -0.5588,-2.286 -0.5588,-4.9784 v -14.8844 h 6.1468 v 13.9192 q 0,4.2672 1.2192,6.096 1.27,1.8288 4.3688,1.8288 1.1176,0 2.3368,-0.1016 1.27,-0.1016 1.8796,-0.254 v -21.4884 h 6.1468 z m 14.524581,-3.5052 q 2.8448,0 4.318,-0.3048 v -6.8072 q -0.508,-0.1524 -1.4732,-0.3048 -0.9652,-0.1524 -2.1336,-0.1524 -1.016,0 -2.0828,0.1524 -1.016,0.1524 -1.8796,0.5588 -0.8128,0.4064 -1.3208,1.1684 -0.508,0.7112 -0.508,1.8288 0,2.1844 1.3716,3.048 1.3716,0.8128 3.7084,0.8128 z m -0.508,-22.9108 q 3.048,0 5.1308,0.762 2.0828,0.762 3.302,2.1336 1.27,1.3716 1.778,3.3528 0.5588,1.9304 0.5588,4.2672 v 16.1036 q -1.4224,0.3048 -4.318,0.7112 -2.8448,0.4572 -6.4516,0.4572 -2.3876,0 -4.3688,-0.4572 -1.9812,-0.4572 -3.4036,-1.4732 -1.3716,-1.016 -2.1844,-2.6416 -0.762,-1.6256 -0.762,-4.0132 0,-2.286 0.8636,-3.8608 0.9144,-1.5748 2.4384,-2.54 1.524,-1.016 3.5052,-1.4224 2.032,-0.4572 4.2164,-0.4572 1.016,0 2.1336,0.1524 1.1176,0.1016 2.3876,0.4064 v -1.016 q 0,-1.0668 -0.254,-2.032 -0.254,-0.9652 -0.9144,-1.6764 -0.6096,-0.762 -1.6764,-1.1684 -1.016,-0.4064 -2.5908,-0.4064 -2.1336,0 -3.9116,0.3048 -1.778,0.3048 -2.8956,0.7112 l -0.762,-4.9784 q 1.1684,-0.4064 3.4036,-0.8128 2.2352,-0.4064 4.7752,-0.4064 z m 24.887788,27.7368 q -2.7432,-0.0508 -4.572,-0.6096 -1.778,-0.5588 -2.8448,-1.5748 -1.0668,-1.0668 -1.524,-2.5908 -0.4064,-1.5748 -0.4064,-3.556 v -30.5816 l 6.1468,-1.016 v 30.4292 q 0,1.1176 0.1524,1.8796 0.2032,0.762 0.6604,1.3208 0.4572,0.508 1.2192,0.8128 0.8128,0.254 2.032,0.4064 z m 9.39381,-0.508 h -6.1468 v -26.5684 h 6.1468 z m 0.6604,-34.3408 q 0,1.7272 -1.1176,2.7432 -1.1176,1.016 -2.6416,1.016 -1.5748,0 -2.6924,-1.016 -1.1176,-1.016 -1.1176,-2.7432 0,-1.778 1.1176,-2.794 1.1176,-1.016 2.6924,-1.016 1.524,0 2.6416,1.016 1.1176,1.016 1.1176,2.794 z"
         id="path4" /><path
         style="font-weight:600;font-family:'URW Gothic';-inkscape-font-specification:'URW Gothic Semi-Bold';fill:#7c0505"
         d="m 130.62717,222.68593 h 6.9596 v -30.8864 h 6.9596 v -6.6548 h -20.8788 v 6.6548 h 6.9596 z m 40.17861,-11.0744 c 0.2032,-1.016 0.254,-1.6256 0.254,-2.6416 0,-8.6868 -6.1468,-15.0876 -14.5288,-15.0876 -8.2804,0 -14.8336,6.5532 -14.8336,14.8336 0,8.2296 6.6548,14.6304 15.24,14.6304 4.6228,0 8.2296,-1.6764 11.176,-5.08 1.0668,-1.3208 1.778,-2.4892 2.2352,-3.9116 h -7.366 c -1.7272,2.032 -3.4036,2.794 -6.1976,2.794 -4.0132,0 -6.9596,-2.1336 -7.7724,-5.5372 z m -21.9964,-5.9436 c 1.0668,-3.6576 3.81,-5.588 7.8232,-5.588 4.1656,0 6.9088,1.9812 7.7724,5.588 z m 19.90931,17.018 h 8.128 l 5.8928,-9.652 5.8928,9.652 h 8.128 l -10.0076,-14.5288 8.5852,-13.6144 h -7.62 l -4.9784,8.4836 -5.08,-8.4836 h -7.62 l 8.636,13.6144 z"
         id="path5" /></g></g></svg>
