<?xml version="1.0" encoding="UTF-8" standalone="no"?>
<!-- Created with Inkscape (http://www.inkscape.org/) -->

<svg
   width="279.26877mm"
   height="73.380592mm"
   viewBox="0 0 279.26877 73.380592"
   version="1.1"
   id="svg1"
   xml:space="preserve"
   xmlns="http://www.w3.org/2000/svg"
   xmlns:svg="http://www.w3.org/2000/svg"><defs
     id="defs1" /><g
     id="layer1"
     transform="translate(-7.9735966,-63.894759)"><g
       id="text2"
       style="font-size:76.2px;font-family:'VL PGothic';-inkscape-font-specification:'VL PGothic';text-align:center;letter-spacing:-2.64583px;text-anchor:middle;fill:#822639;stroke-width:0.264583"
       aria-label="QualitEx"><path
         style="font-weight:500;font-family:'Ubuntu Nerd Font';-inkscape-font-specification:'Ubuntu Nerd Font Medium';fill:#081968"
         d="m 17.955796,96.584564 q 0,4.343396 1.0668,7.924796 1.0668,3.5052 3.048,6.0198 2.0574,2.4384 4.953,3.81 2.895599,1.3716 6.553199,1.3716 3.5814,0 6.477,-1.3716 2.8956,-1.3716 4.8768,-3.81 2.0574,-2.5146 3.1242,-6.0198 1.0668,-3.5814 1.0668,-7.924796 0,-4.3434 -1.0668,-7.8486 -1.0668,-3.5814 -3.1242,-6.0198 -1.9812,-2.514599 -4.8768,-3.886199 -2.8956,-1.3716 -6.477,-1.3716 -3.6576,0 -6.553199,1.3716 -2.8956,1.3716 -4.953,3.886199 -1.9812,2.5146 -3.048,6.0198 -1.0668,3.5052 -1.0668,7.8486 z m 41.224198,0 q 0,5.714996 -1.4478,10.286996 -1.4478,4.572 -4.0386,8.001 -2.590799,3.3528 -6.095999,5.4864 -3.429,2.1336 -7.5438,3.048 0.2286,1.6002 1.6002,2.7432 1.3716,1.143 3.429,1.905 2.1336,0.762 4.8006,1.2192 2.7432,0.5334 5.714999,0.762 l -2.1336,7.239 q -9.829799,-0.762 -15.620999,-3.81 -5.7912,-2.9718 -7.3914,-9.525 -4.724399,-0.4572 -8.839199,-2.4384 -4.0386,-1.9812 -7.0866,-5.4102 -3.048,-3.429 -4.8005998,-8.3058 -1.7525999,-4.8768 -1.7525999,-11.201396 0,-6.7818 2.0573997,-11.8872 2.0574,-5.181599 5.5626,-8.686799 3.5814,-3.5052 8.2296,-5.2578 4.648199,-1.7526 9.829799,-1.7526 5.1816,0 9.8298,1.7526 4.6482,1.7526 8.0772,5.2578 3.505199,3.5052 5.562599,8.686799 2.0574,5.1054 2.0574,11.8872 z m 40.10234,25.222196 q -2.667,0.6858 -6.9342,1.3716 -4.267199,0.762 -9.372599,0.762 -4.8006,0 -8.0772,-1.3716 -3.2004,-1.3716 -5.1816,-3.81 -1.905,-2.4384 -2.7432,-5.7912 -0.8382,-3.429 -0.8382,-7.4676 V 83.173364 h 9.2202 v 20.878796 q 0,6.4008 1.8288,9.144 1.905,2.7432 6.5532,2.7432 1.6764,0 3.5052,-0.1524 1.905,-0.1524 2.8194,-0.381 V 83.173364 h 9.220199 z m 23.109786,-5.2578 q 4.2672,0 6.477,-0.4572 v -10.2108 q -0.762,-0.2286 -2.2098,-0.4572 -1.4478,-0.2286 -3.2004,-0.2286 -1.524,0 -3.1242,0.2286 -1.524,0.2286 -2.8194,0.8382 -1.2192,0.6096 -1.9812,1.7526 -0.762,1.0668 -0.762,2.7432 0,3.2766 2.0574,4.572 2.0574,1.2192 5.5626,1.2192 z m -0.762,-34.366196 q 4.572,0 7.6962,1.143 3.1242,1.143 4.953,3.2004 1.905,2.0574 2.667,5.0292 0.8382,2.8956 0.8382,6.4008 v 24.155396 q -2.1336,0.4572 -6.477,1.0668 -4.2672,0.6858 -9.6774,0.6858 -3.5814,0 -6.5532,-0.6858 -2.9718,-0.6858 -5.1054,-2.2098 -2.0574,-1.524 -3.2766,-3.9624 -1.143,-2.4384 -1.143,-6.0198 0,-3.429 1.2954,-5.7912 1.3716,-2.3622 3.6576,-3.81 2.286,-1.523996 5.2578,-2.133596 3.048,-0.6858 6.3246,-0.6858 1.524,0 3.2004,0.2286 1.6764,0.1524 3.5814,0.6096 v -1.524 q 0,-1.6002 -0.381,-3.048 -0.381,-1.4478 -1.3716,-2.5146 -0.9144,-1.143 -2.5146,-1.7526 -1.524,-0.6096 -3.8862,-0.6096 -3.2004,0 -5.8674,0.4572 -2.667,0.4572 -4.3434,1.0668 l -1.143,-7.4676 q 1.7526,-0.6096 5.1054,-1.2192 3.3528,-0.6096 7.1628,-0.6096 z m 38.6546,41.605196 q -4.1148,-0.0762 -6.858,-0.9144 -2.667,-0.8382 -4.2672,-2.3622 -1.6002,-1.6002 -2.286,-3.8862 -0.6096,-2.3622 -0.6096,-5.334 V 65.418765 l 9.2202,-1.524 v 45.643795 q 0,1.6764 0.2286,2.8194 0.3048,1.143 0.9906,1.9812 0.6858,0.762 1.8288,1.2192 1.2192,0.381 3.048,0.6096 z m 15.41363,-0.762 h -9.2202 V 83.173364 h 9.2202 z m 0.9906,-51.511195 q 0,2.5908 -1.6764,4.1148 -1.6764,1.524 -3.9624,1.524 -2.3622,0 -4.0386,-1.524 -1.6764,-1.524 -1.6764,-4.1148 0,-2.667 1.6764,-4.191 1.6764,-1.524 4.0386,-1.524 2.286,0 3.9624,1.524 1.6764,1.524 1.6764,4.191 z m 7.6411,1.143 9.2202,-1.524 v 12.039599 h 14.1732 v 7.6962 h -14.1732 v 16.230596 q 0,4.8006 1.524,6.858 1.524,2.0574 5.1816,2.0574 2.5146,0 4.4196,-0.5334 1.9812,-0.5334 3.1242,-0.9906 l 1.524,7.3152 q -1.6002,0.6858 -4.191,1.3716 -2.5908,0.762 -6.096,0.762 -4.2672,0 -7.1628,-1.143 -2.8194,-1.143 -4.4958,-3.2766 -1.6764,-2.2098 -2.3622,-5.2578 -0.6858,-3.1242 -0.6858,-7.0866 z"
         id="path7" /><path
         style="font-weight:600;font-family:'URW Gothic';-inkscape-font-specification:'URW Gothic Semi-Bold';fill:#7c0505"
         d="m 213.30717,123.02596 h 30.2514 v -9.9822 h -19.812 V 99.937364 h 18.9738 v -9.9822 h -18.9738 V 76.696365 h 19.812 v -9.9822 h -30.2514 z m 31.87279,0 h 12.192 l 8.8392,-14.478 8.8392,14.478 h 12.192 l -15.0114,-21.7932 12.8778,-20.421595 h -11.43 l -7.4676,12.725399 -7.62,-12.725399 h -11.43 l 12.954,20.421595 z"
         id="path8" /></g></g></svg>
